<?xml version="1.0" encoding="utf-8"?>
<!DOCTYPE svg PUBLIC "-//W3C//DTD SVG 1.1//EN" "http://www.w3.org/Graphics/SVG/1.1/DTD/svg11.dtd">

<svg
    version="1.1"
    xmlns="http://www.w3.org/2000/svg"
    viewBox="0 0 800 800"
>
    <g id="Head_10">
        <path class="primary-fill" d="M400,200c-110.5,0-200,89.5-200,200h400C600,289.5,510.5,200,400,200z"/>

        <g>
            <path class="secondary-fill" d="M207,308c-38-26.5-57.8-88.8-23.2-132.5C219,131,247,117,226.5,53.3c61,52.7,14.5,114.2,18,149.7
                c1.2,12.5,15,27.6,27.5,26.5L207,308z"/>
            <path opacity="0.2" d="M227.2,55.7c0,0.1,0.1,0.2,0.1,0.3c0.1,0.3,0.2,0.6,0.3,0.9c0.1,0.4,0.2,0.8,0.4,1.2
                c0,0.1,0.1,0.2,0.1,0.3c0.4,1.4,0.8,2.7,1.1,4c0,0.1,0.1,0.2,0.1,0.3c0,0.2,0.1,0.3,0.1,0.5c0.3,1.2,0.6,2.4,0.9,3.6
                c0,0.1,0.1,0.3,0.1,0.4c0.3,1.3,0.6,2.6,0.9,3.9c0,0.1,0.1,0.3,0.1,0.4c0,0.1,0,0.2,0.1,0.3c0.2,1.1,0.4,2.3,0.6,3.4
                c0,0.2,0.1,0.4,0.1,0.6c0.2,1,0.3,2.1,0.5,3.1c0,0.2,0.1,0.4,0.1,0.6c0.1,1.1,0.3,2.3,0.4,3.4c0,0.2,0,0.5,0.1,0.7
                c0.1,1.2,0.2,2.3,0.2,3.4c0,0.1,0,0.1,0,0.2c0,0.1,0,0.2,0,0.4c0,0.9,0.1,1.8,0.1,2.7c0,0.1,0,0.3,0,0.4c0,1,0,2,0,3
                c0,0.2,0,0.4,0,0.5c0,1-0.1,2-0.2,3c0,0.1,0,0.2,0,0.3c-0.1,1-0.2,2-0.3,3c0,0.1,0,0.1,0,0.2c0,0,0,0.1,0,0.1
                c-0.1,0.9-0.3,1.8-0.4,2.7c0,0.2-0.1,0.3-0.1,0.5c-0.2,0.9-0.4,1.8-0.6,2.7c0,0.1,0,0.1,0,0.2c-0.2,0.9-0.5,1.8-0.7,2.7
                c0,0.1,0,0.2-0.1,0.2c-0.3,0.9-0.5,1.7-0.8,2.6c0,0.1-0.1,0.2-0.1,0.3c0,0.1-0.1,0.2-0.1,0.2c-0.3,0.8-0.6,1.6-0.9,2.5
                c0,0.1-0.1,0.2-0.1,0.3c-0.3,0.8-0.7,1.6-1,2.4c0,0.1,0,0.1-0.1,0.2c-0.4,0.8-0.8,1.6-1.2,2.4c-0.1,0.1-0.1,0.3-0.2,0.4
                c-0.4,0.8-0.8,1.6-1.2,2.3c0,0,0,0.1,0,0.1c0,0.1-0.1,0.1-0.1,0.2c-0.4,0.7-0.8,1.4-1.3,2.2c0,0.1-0.1,0.1-0.1,0.2c0,0,0,0,0,0
                c-0.2,0.3-0.4,0.7-0.6,1c0,0.1,0,0.2,0,0.2c0,0.3,2.6,8.9,2.8,9.4c4-3.9,7-6.1,11.1-10.1c1,3.9,2.1,7.5,3.8,12.1
                c3.2-3,4.7-4.1,8.8-8c2.8,5.3,3.7,7.5,6.3,12.5c5.4-28.7,4.7-60.7-29.2-89.9c0.2,0.2,0.3,0.8,0.3,1.1
                C227,54.8,227.1,55.3,227.2,55.7z"/>
            <path class="primary-fill" d="M307,258l-68.9,83.1c-4.2,5.1-11.8,5.8-16.9,1.6l-16.9-14c-5.1-4.2-5.8-11.8-1.6-16.9l68.9-83.1
                c4.2-5.1,11.8-5.8,16.9-1.6l16.9,14C310.6,245.3,311.3,252.9,307,258z"/>
        </g>

        <g>
            <path class="secondary-fill" d="M592.8,308c38-26.5,57.8-88.8,23.2-132.5C580.8,131,552.8,117,573.4,53.3c-61,52.7-14.5,114.2-18,149.7
                c-1.2,12.5-15,27.6-27.5,26.5L592.8,308z"/>
            <path opacity="0.2" d="M572.6,55.7c0,0.1-0.1,0.2-0.1,0.3c-0.1,0.3-0.2,0.6-0.3,0.9c-0.1,0.4-0.2,0.8-0.4,1.2
                c0,0.1-0.1,0.2-0.1,0.3c-0.4,1.4-0.8,2.7-1.1,4c0,0.1-0.1,0.2-0.1,0.3c0,0.2-0.1,0.3-0.1,0.5c-0.3,1.2-0.6,2.4-0.9,3.6
                c0,0.1-0.1,0.3-0.1,0.4c-0.3,1.3-0.6,2.6-0.9,3.9c0,0.1-0.1,0.3-0.1,0.4c0,0.1,0,0.2-0.1,0.3c-0.2,1.1-0.4,2.3-0.6,3.4
                c0,0.2-0.1,0.4-0.1,0.6c-0.2,1-0.3,2.1-0.5,3.1c0,0.2-0.1,0.4-0.1,0.6c-0.1,1.1-0.3,2.3-0.4,3.4c0,0.2,0,0.5-0.1,0.7
                c-0.1,1.2-0.2,2.3-0.2,3.4c0,0.1,0,0.1,0,0.2c0,0.1,0,0.2,0,0.4c0,0.9-0.1,1.8-0.1,2.7c0,0.1,0,0.3,0,0.4c0,1,0,2,0,3
                c0,0.2,0,0.4,0,0.5c0,1,0.1,2,0.2,3c0,0.1,0,0.2,0,0.3c0.1,1,0.2,2,0.3,3c0,0.1,0,0.1,0,0.2c0,0,0,0.1,0,0.1
                c0.1,0.9,0.3,1.8,0.4,2.7c0,0.2,0.1,0.3,0.1,0.5c0.2,0.9,0.4,1.8,0.6,2.7c0,0.1,0,0.1,0,0.2c0.2,0.9,0.5,1.8,0.7,2.7
                c0,0.1,0,0.2,0.1,0.2c0.3,0.9,0.5,1.7,0.8,2.6c0,0.1,0.1,0.2,0.1,0.3c0,0.1,0.1,0.2,0.1,0.2c0.3,0.8,0.6,1.6,0.9,2.5
                c0,0.1,0.1,0.2,0.1,0.3c0.3,0.8,0.7,1.6,1,2.4c0,0.1,0,0.1,0.1,0.2c0.4,0.8,0.8,1.6,1.2,2.4c0.1,0.1,0.1,0.3,0.2,0.4
                c0.4,0.8,0.8,1.6,1.2,2.3c0,0,0,0.1,0,0.1c0,0.1,0.1,0.1,0.1,0.2c0.4,0.7,0.8,1.4,1.3,2.2c0,0.1,0.1,0.1,0.1,0.2c0,0,0,0,0,0
                c0.2,0.3,0.4,0.7,0.6,1c0,0.1,0,0.2,0,0.2c0,0.3-2.6,8.9-2.8,9.4c-4-3.9-7-6.1-11.1-10.1c-1,3.9-2.1,7.5-3.8,12.1
                c-3.2-3-4.7-4.1-8.8-8c-2.8,5.3-3.7,7.5-6.3,12.5c-5.4-28.7-4.7-60.7,29.2-89.9c-0.2,0.2-0.3,0.8-0.3,1.1
                C572.9,54.8,572.8,55.3,572.6,55.7z"/>
            <path class="primary-fill" d="M492.8,258l68.9,83.1c4.2,5.1,11.8,5.8,16.9,1.6l16.9-14c5.1-4.2,5.8-11.8,1.6-16.9l-68.9-83.1
                c-4.2-5.1-11.8-5.8-16.9-1.6l-16.9,14C489.3,245.3,488.6,252.9,492.8,258z"/>
        </g>
    </g>
</svg>
