<?xml version="1.0" encoding="utf-8"?>
<!DOCTYPE svg PUBLIC "-//W3C//DTD SVG 1.1//EN" "http://www.w3.org/Graphics/SVG/1.1/DTD/svg11.dtd">

<svg
    version="1.1"
    xmlns="http://www.w3.org/2000/svg"
    viewBox="0 0 800 800"
>
    <g id="Head_11">
        <path class="secondary-fill" d="M310.4,223.6c-8.2-3-16.5-5.9-24.7-8.9c-2.5-0.9-5.1-1.8-7.1-3.6c-2.3-2-3.6-4.8-4.8-7.6
            c-4-9.6-6.5-19.7-7.6-30.1c-1.5-14.4-0.2-28.9,2-43.2c1.3-8.8,2.9-17.7,7-25.6c5.3-10.3,14.6-18.5,25.6-22.4
            c10.9-3.9,23.4-3.3,34,1.4c5.4,2.4,10.6,6.3,12.5,11.9c1.9,5.8-0.1,12.2-2.1,18c-2.1,6.1-4.3,12.2-8.1,17.4
            c-3.8,5.2-9.6,9.2-16.1,9.4c-8.2,0.2-15.7-5.8-23.8-4.9c0.7,1.4,1.4,2.8,2.2,4.2c3.1,6.1,7.3,13,14.1,13.6c4.3,0.4,8.3-1.9,12-4.1
            c9.9-5.9,19.9-11.8,29.8-17.7c5.7-3.4,12.3-8.4,11.3-15c-0.4-2.7-2-5-3.5-7.3c-6.1-9.4-9.9-20.2-11-31.3c2.3-0.2,4.5-1,6.5-2.2
            c-3.9-3.7-8.4-6.7-13.4-8.7c-8.2-3.3-17.1-4-25.9-4.7c-7.5-0.6-15.1-1.1-22.6-1.7c-7.8-0.6-15.6-1.1-23.3,0.2
            c-7.7,1.3-15.3,4.7-20.1,10.8c-9.1,11.4-6.1,27.8-8.4,42.2c-2.6,16.4-12.7,32.1-9.6,48.4c1.1,5.8,3.9,11.2,5.8,16.8
            c3.9,11.4,4.2,23.6,4.4,35.7c0.3,21.1,0.4,42.2,0.2,63.3"/>
        <path class="secondary-fill" d="M494.9,224c10.5,1.6,21.2-1,30.8-5.4c9.6-4.4,18.2-10.7,26.8-16.9c1.9-1.4,3.9-2.9,4.7-5.1
            c0.7-1.8,0.4-3.9,0-5.8c-2-11.2-5.9-22-7-33.4c-0.5-5.6-0.3-11.2-1.4-16.7c-2-10.1-8.2-19.1-16.3-25.5c-8-6.4-17.8-10.5-27.7-13
            c-10.1-2.6-22-3.2-29.5,3.9c-2.9,2.8-4.8,6.4-5.9,10.3c-2.9,10.4,0.9,22.9,10.1,28.5c9.9,6,22.6,3.3,34.1,4.5
            c-6.2,5.5-13.3,10-21,13.2c-3.4,1.4-7.2,2.5-10.6,1.2c-2.6-1-4.5-3.2-6.3-5.3c-4.6-5.5-9.2-11-13.8-16.5c-0.5-0.6-1-1.2-1.7-1.4
            c-2.4-0.9-6,2.2-7.3-0.1c0-2.3-3.4-7.2-5.1-7.3c0.2-13.6,1-28.6,10.3-38.5c5-5.3,11.8-8.4,18.6-10.9c2.8-1,5.6-2,8.5-2
            c4.6,0,8.8,2.4,13.1,4.1c7.6,3,15.8,3.7,23.6,6.2c8.3,2.7,15.9,7.3,23.4,11.8c4.4,2.7,8.8,5.4,12,9.4c3.7,4.7,5.4,10.6,7.5,16.2
            c2.9,7.8,6.9,15.1,11.8,21.8c1.2,1.7,2.5,3.3,3.1,5.2c0.6,1.8,0.7,3.7,0.7,5.6c0.2,9.1,0.4,18.2,0.6,27.3
            c0.1,4.9,0.1,10.1-2.3,14.3c-2.5,4.5-7.4,7.3-11.2,10.7c-4.4,3.9-7.8,9-11,13.9c-6.1,9.3-12.3,18.6-18.4,27.9"/>
        <path class="primary-fill" d="M224.5,304.1C219,311.5,200,349.5,200,400c0,0,400,0,400,0c0-50-17.8-83-24.7-91.5
            c14.9,0.8,28.9,10.9,43.3,14.3c18.5,4.4,38.9,0.6,54.5-10.4c3.6-2.5,7-5.4,9.5-9.1c3.5-5,5.4-11.4,10.7-14.4
            c6.4-3.6,14.4-0.2,21.7-1.2c-11.5-16.4-32.8-22.1-52.5-25.8c-5.1-1-10.3-1.8-15.5-2.2c-8.5-0.6-17,0.4-25.5,1.7
            c-13.3,2.2-26.5,5.4-39.3,9.7c-5.9,2-12.2,5.7-18.2,6.9c-6,1.2-7.2-2.5-11-6.9c-15.3-18.2-33.9-33.6-54.5-45.4
            c-12.4-7-25.5-12.7-39-16.9c-14.8-4.6-30.7-6.5-43.3-16.2c-10.4-9.1-15.4-23.6-6.2-32.9c-4.2,0-13.7,1.6-17.6,14.5
            c-10,28.2-37.3,29-61.4,37.8c-22.8,8.4-44,21-62.4,36.9c-14.1,12.3-28,37.6-50.3,32c-4.7-1.2-29.8-24.5-59.8-24.6
            c-77.9-0.3-94.7,31-92.6,38.5c7-4.2,8.8-4.9,17.1-6.8c9.4-2.2,19.9,2.9,26.3,10.8s11,17.5,19.1,23.6c11.5,8.5,27.2,7.8,41.5,6.8
            c4.6-0.3,9.2-0.9,13.4-2.5C208,317.7,211,305.7,224.5,304.1"/>
    </g>
</svg>
