<?xml version="1.0" encoding="utf-8"?>
<!DOCTYPE svg PUBLIC "-//W3C//DTD SVG 1.1//EN" "http://www.w3.org/Graphics/SVG/1.1/DTD/svg11.dtd">

<svg
    version="1.1"
    xmlns="http://www.w3.org/2000/svg"
    x="0px" y="0px"
    viewBox="0 0 800 800"
    enable-background="new 0 0 800 800"
    xml:space="preserve"
>
    <g id="Head_3">
        <path class="primary-fill" d="M400,200c-110.5,0-200,89.5-200,200h400C600,289.5,510.5,200,400,200z"/>
        <path class="primary-fill" d="M347.6,216.3c0,0,0-0.4,0-1.1c0-0.2,0-0.4,0-0.6c0,0,0,0,0.1-0.1c0,0,0.1-0.1,0.1-0.1c0-0.1,0-0.3,0.1-0.5
            c0.2-1.5,0.2-4.6,0-10.4c-0.1-2.9-0.2-6.5-0.3-10.9c0-4.4,0.1-9.6,0.6-15.6c0.6-6,1.6-12.7,3.5-19.7c1.9-7,4.7-14.4,8.3-21.3
            c0.9-1.7,1.9-3.4,2.9-5.1l0.2-0.3l0.1-0.2c-0.7,1.2,1-1.8,0.9-1.5l0.3-0.3l0.1-0.2l0.1-0.1c0-0.1,0,0,0.1-0.1
            c0.4-0.7,0.9-1.4,1.4-2.1c0.5-0.7,1-1.4,1.4-2.1l0.3-0.4l0.2-0.3l0.5-0.6c0.7-0.8,1.4-1.6,1.9-2.3l0.9-1c0.3-0.3,0.6-0.7,0.9-1
            l1.8-1.7l1.7-1.5c0.6-0.5,1-0.9,1.6-1.3c2-1.7,3.9-3,5.6-4.1c1.7-1.1,3.3-2.1,4.7-2.9c1.5-0.9,2.9-1.6,4.2-2.3
            c2.6-1.3,5.1-2.5,7.3-3.5c3.9-1.8,7.9-3.6,12.1-5.4c3.6-1.6,6.7-3.2,9.4-4.7c2.7-1.5,4.9-2.9,6.8-4.3c1.9-1.5,3.5-3,4.9-5.2
            c0.7-1.1,1.3-2.3,1.8-3.8c0.5-1.4,1-3.1,1.2-4.8c0.6-2.9,0.7-6.1,0.2-9.4c-0.5-3.3-1.6-6.6-3.3-9.9c-1.7-3.3-4.1-6.5-7-9.5
            c-5.8-5.9-13.6-10.4-22-12.8c-8.4-2.4-17.3-2.7-25.6-0.7c-4.1,1-8.1,2.5-11.8,4.5c-1.8,1-3.7,2.1-5.2,3.3
            c-1.4,1.1-2.7,2.4-3.8,3.8c-2.3,2.8-4,6.1-5.2,9.5c-1.2,3.4-1.9,6.9-2.3,10.2c-0.7,6.7-0.2,12.8,0.7,17.7
            c0.9,4.9,2.2,8.7,3.4,11.1c0.6,1.2,1.1,2.1,1.5,2.7c0.4,0.6,0.7,0.9,0.7,0.9s-0.3-0.2-0.8-0.7c-0.5-0.5-1.2-1.3-2.1-2.4
            c-1.7-2.2-3.8-5.8-5.7-10.7c-1.9-4.9-3.7-11.1-4.4-18.6c-0.3-3.8-0.3-7.9,0.3-12.2c0.6-4.4,1.9-9,4.2-13.6
            c1.2-2.3,2.6-4.5,4.4-6.7c0.9-1,1.6-2,2.4-3c0.8-1,1.7-2,2.6-3c3.7-3.9,8.1-7.5,13.1-10.7C379.5,6.7,392,2.6,405.5,2
            c13.4-0.6,27.7,1.9,41.2,8.4c6.8,3.2,13.3,7.5,19.4,12.8c6,5.3,11.5,11.8,15.8,19.1c4.4,7.4,7.6,15.5,9.6,24.1
            c0.9,4.1,1.7,8.2,2.1,12.6c0.4,4.3,0.5,8.8,0.2,13.4c-0.6,9.1-2.8,18.4-6.3,26.9c-3.5,8.4-8,16-12.8,22.4
            c-4.8,6.5-9.8,12-14.5,16.8c-4.7,4.8-9.2,9-13,12.6c-1.9,1.8-3.5,3.5-4.9,4.9c-0.6,0.7-1.2,1.4-1.7,2c-0.5,0.6-0.8,1.1-0.9,1.5
            c-0.2,0.4,0,0.6,0.3,0.5c0.1,0,0.2,0,0.3-0.1c0.2-0.1,0.3-0.2,0.4-0.3c0.2-0.1,0.4-0.3,0.6-0.5l0.4-0.3l0.4-0.4
            c0.2-0.2,0.6-0.6,0.9-0.9l0.2-0.3l0.1-0.1l0.2-0.2c0.3-0.4,0.7-0.9,1-1.4c0.3-0.5,0.6-0.9,0.9-1.4c0.1-0.1,0,0,0,0l0,0.1l-0.1,0.2
            l-0.1,0.4c-0.2,0.4,1.8-2.6,0.8-1.4v0v0.1c0,0.3,0,0.6,0,0.9c0,1.1,0.3,1.8,0.6,2.5c0.3,0.7,0.6,1.6,1,2.7
            c0.4,1.1,0.8,2.6,1.3,4.3c0.6,2.1,1.1,4.1,1.6,5.9c1.1,4.3,2.3,9.1,3,13.1c0.1,0.5,0.2,1,0.2,1.4c0.1,0.6,0.2,1.1,0.2,1.6
            c0.1,0.5,0.1,0.9,0.2,1.4c0,0.2,0.1,0.4,0.1,0.6c0.1,0.7,0.2,1.1,0.2,1.1L347.6,216.3z"/>

        <circle class="secondary-fill" cx="321" cy="101" r="30"/>
    </g>
</svg>
