<?xml version="1.0" encoding="utf-8"?>
<!DOCTYPE svg PUBLIC "-//W3C//DTD SVG 1.1//EN" "http://www.w3.org/Graphics/SVG/1.1/DTD/svg11.dtd">

<svg
    version="1.1"
    xmlns="http://www.w3.org/2000/svg"
    viewBox="0 0 800 800"
>
    <g id="Head_12">
        <path class="primary-fill" d="M400,200c-110.5,0-200,89.5-200,200h400C600,289.5,510.5,200,400,200z"/>
        <path class="secondary-fill" d="M195,330.3c-13-5.1-84-5.8-121.3,1.1c-18.1,3.4-30.2,45.3-29,65.5C29,373.6,23,276.1,56.2,269.2
            c6.2-3.2,88.8-2.1,138.8-3.2V330.3z"/>
        <path class="secondary-fill" d="M605,330.3c13-5.1,84-5.8,121.4,1.1c18.1,3.4,30.2,45.3,29,65.5c15.7-23.3,21.7-120.8-11.5-127.7
            c-6.2-3.2-88.9-2.1-138.9-3.2V330.3z"/>
        <path class="primary-fill" d="M593,340.8H207c-6.6,0-12-5.4-12-12V267c0-6.6,5.4-12,12-12h386c6.6,0,12,5.4,12,12v61.8
            C605,335.4,599.6,340.8,593,340.8z"/>
    </g>
</svg>
