<?xml version="1.0" encoding="utf-8"?>
<!DOCTYPE svg PUBLIC "-//W3C//DTD SVG 1.1//EN" "http://www.w3.org/Graphics/SVG/1.1/DTD/svg11.dtd">

<svg
    version="1.1"
    xmlns="http://www.w3.org/2000/svg"
    x="0px" y="0px"
    viewBox="0 0 800 800"
    enable-background="new 0 0 800 800"
    xml:space="preserve"
>
    <g id="Head_4">
        <path class="secondary-fill" d="M400,200c-110.5,0-200,89.5-200,200h400C600,289.5,510.5,200,400,200z"/>
        <g opacity="0.2">
            <line fill="none" stroke="#000000" stroke-width="8" stroke-miterlimit="8" x1="400" y1="208" x2="400" y2="400"/>
            <path d="M350.7,297c-0.1-0.7-1.2,1.8-1.7,2.6c-1.4,2-3.6,3.7-5.6,5c-6.5,4.3-13.9,4.7-21.4,4.8c-6.4,0.1-13.1,0.7-17.4-5
                            c-3.5-4.7-4.5-9.8-1.3-14.9c2.4-3.8,5.7-6.9,8-10.8c2.7-4.6,3.1-9.7,2.2-14.8c-1-5.8-5.5-10.2-9.7-14
                            c-5.1-4.6-11-8.8-17.5-11.2c-4.8-1.8-6.9,5.9-2.1,7.7c7,2.7,13.5,8.1,18.5,13.6c4.1,4.4,4.3,10.3,1.4,15.4
                            c-2.5,4.3-6.4,7.7-8.7,12.2c-3,5.7-2.1,11.6,0.4,17.3c6.7,14.9,25.4,14.1,39.1,11.7c8.9-1.5,25.8-10.2,23.7-21.6
                            C357.5,289.8,349.8,292,350.7,297L350.7,297z"/>
            <path d="M367.5,345.2c-0.6-25.5-30.7-24-47.4-15.2c-23,12-18.5,44.7-18.8,66c-0.1,5.2,7.9,5.2,8,0
                            c0.2-17.8-3.9-41.9,10.1-55.7c9.7-9.7,39.6-14.7,40.1,4.9C359.6,350.4,367.6,350.4,367.5,345.2L367.5,345.2z"/>
            <path d="M242.6,287.6c12.7,6.1,23.6,15.2,31.6,26.9c4,5.9,7,12.4,9.1,19.2c2,6.6,3.7,15.3-1.5,20.9c-3.5,3.8,2.1,9.5,5.7,5.7
                            c11.4-12.3,3.7-32.1-3.2-44.7c-8.4-15.2-22.1-27.4-37.7-34.9C242.1,278.5,238,285.4,242.6,287.6L242.6,287.6z"/>
            <path d="M258.1,343.6c-0.1-10.2-5.7-18.5-16.4-19.1c-8.4-0.5-14,5.5-17,12.7c-7.4,18.1-5.8,39.8-5.6,58.9c0.1,5.2,8.1,5.2,8,0
                            c-0.2-15.4-0.7-31,2.2-46.2c1-5.4,2.6-13.5,7.8-16.5c2.2-1.3,5.2-1,7.6-0.3c4.4,1.4,5.3,6.6,5.4,10.5
                            C250.1,348.7,258.1,348.7,258.1,343.6L258.1,343.6z"/>
            <path d="M281.4,271.6c-3.9,0.5-8-3.8-10.5-6.2c-2.2-2.1-4.4-5.6-7.4-6.6c-4.9-1.5-7,6.2-2.1,7.7c-1.8-0.6-1.1-0.7-0.2,0.3
                            c0.6,0.6,1.2,1.3,1.8,1.9c1.8,1.9,3.7,3.7,5.7,5.4c4.4,3.6,9.2,6,14.9,5.2C288.6,278.6,286.4,270.9,281.4,271.6L281.4,271.6z"/>
            <path d="M468.3,222.8c2,4.5,2.4,8.8-0.4,13c-3.5,5.2-10.9,7.8-16.7,9.3c-16.1,4.3-40.2-3.1-36.3-23.8c0.5-2.5-1.1-5.1-3.9-5.1
                            c-7.5,0-15.1,0-22.6,0c-2.8,0-4.3,2.5-3.9,5.1c3.9,20.5-19.3,27.6-35.3,24.1c-11.1-2.5-23.8-9.8-18.1-22.5
                            c2.1-4.7-4.8-8.7-6.9-4c-3.1,7-4.1,14.4,0.4,21.1c4.9,7.3,14.2,11.2,22.4,13.2c11.4,2.8,23.3,1.4,33.4-4.7
                            c9.9-6,13.8-18.3,11.7-29.2c-1.3,1.7-2.6,3.4-3.9,5.1c7.5,0,15.1,0,22.6,0c-1.3-1.7-2.6-3.4-3.9-5.1
                            c-2,10.5,1.5,22.1,10.5,28.4c9.9,6.9,22,8.1,33.6,5.8c8.4-1.7,17.6-5.8,22.8-12.6c5.1-6.7,4.3-14.6,1.1-21.9
                            C473.1,214,466.2,218.1,468.3,222.8L468.3,222.8z"/>
            <path d="M468.3,280.8c-6.4-15.5-23.2-16.9-38-14.3c-6.8,1.2-14.7,4.9-17.7,11.5c-2.5,5.3-4.4,11.6-5.3,17.3
                            c1.3-1,2.6-2,3.9-2.9c-7.5,0-15.1,0-22.6,0c1.3,1,2.6,2,3.9,2.9c-0.9-5.8-2.8-12-5.3-17.3c-3.1-6.7-10.9-10-17.7-11.5
                            c-14.6-3-31.7-0.8-38,14.3c-2,4.8,5.8,6.8,7.7,2.1c4.8-11.5,20.9-10.6,30.9-8.1c10.5,2.6,13.2,13,14.6,22.6
                            c0.3,1.7,2.2,2.9,3.9,2.9c7.5,0,15.1,0,22.6,0c1.6,0,3.6-1.2,3.9-2.9c0.7-4.4,2.2-8.8,3.6-13c1.8-5.4,5.7-8,11-9.6
                            c9.9-2.9,26.3-3.1,30.9,8.1C462.5,287.6,470.2,285.5,468.3,280.8L468.3,280.8z"/>
            <path d="M441.2,294.9c-2,11.2,13.8,19.2,22.3,21.3c7.3,1.9,16.3,1.8,23.8,0.9c7.8-0.9,13.2-5.4,16.8-12.3
                            c2.7-5.2,3.3-11.2,0.8-16.5c-2.1-4.6-5.9-8-8.6-12.2c-8.6-12.9,8.6-25.6,19.4-29.7c4.8-1.8,2.7-9.6-2.1-7.7
                            c-6.1,2.3-11.5,6.2-16.5,10.3c-4.4,3.7-8.8,8.1-10.5,13.7c-3.3,11.4,4.1,18.2,9.9,26.8c3.1,4.7,2.1,9-0.6,13.7
                            c-3.7,6.4-10.4,6.3-16.8,6.2c-7.7-0.1-14.9-0.3-21.8-4.2c-2.4-1.3-4.4-3.1-6.2-5.1c-0.6-0.7-1.1-1.5-1.6-2.3
                            c-0.3-0.4-0.3-1.7-0.5-0.7C449.8,292,442.1,289.8,441.2,294.9L441.2,294.9z"/>
            <path d="M452.4,354.6c-2.6,2.2-7.1,2.8-10.3,3.4c-5.1,1-10.2,0.7-14.9-1.8c-9-4.8-11-17.1-12.3-26.2c-0.2-1.7-2.3-2.9-3.9-2.9
                            c-7.5,0-15.1,0-22.6,0c-1.6,0-3.6,1.2-3.9,2.9c-1.3,9.1-3.1,19.9-11.2,25.6c-4.3,3-9.3,3.2-14.3,2.7c-3.6-0.3-9.1-1.2-12-3.6
                            c-3.9-3.3-9.6,2.3-5.7,5.7c7.9,6.7,23.2,8.2,32.5,4c12.7-5.8,16.6-19.5,18.3-32.2c-1.3,1-2.6,2-3.9,2.9c7.5,0,15.1,0,22.6,0
                            c-1.3-1-2.6-2-3.9-2.9c1.7,12.3,5.3,25.4,17.1,31.6c9.3,5,25.5,3.5,33.7-3.4C462,356.9,456.3,351.3,452.4,354.6L452.4,354.6z"
                            />
            <path d="M440.1,345.2c0.5-19.6,29.1-14.2,39.3-5.7c7.9,6.6,9.9,18.1,10.7,27.8c0.8,9.6,0.1,19.2,0.2,28.7c0.1,5.2,8.1,5.2,8,0
                            c-0.3-21.9,3.9-51.8-17.8-65.5c-16.4-10.3-47.9-10.6-48.4,14.7C432,350.4,440,350.4,440.1,345.2L440.1,345.2z"/>
            <path d="M552.9,280.7c-15.3,7.4-28.1,19.1-36.9,33.6c-7.6,12.6-15.5,33.5-3.9,46c3.5,3.8,9.2-1.9,5.7-5.7
                            c-9.3-10,0.9-29.5,6.8-38.8c7.8-12.3,19.4-21.9,32.5-28.2C561.6,285.4,557.5,278.5,552.9,280.7L552.9,280.7z"/>
            <path d="M549.5,343.6c0.1-7.6,4.8-13.1,12.6-10.4c5.3,1.8,6.9,11.1,7.9,15.6c3.4,15.4,2.6,31.6,2.4,47.2c-0.1,5.2,7.9,5.2,8,0
                            c0.2-19,1.7-40-5.3-58.1c-2.9-7.6-8-13-16.5-13.5c-11.1-0.6-17.1,9.2-17.2,19.1C541.5,348.7,549.5,348.7,549.5,343.6
                            L549.5,343.6z"/>
            <path d="M516.1,279.3c5.4,0.7,10-1.3,14.2-4.7c2.1-1.7,4-3.5,5.9-5.4c0.6-0.7,1.3-1.4,1.9-2c1-1,2.3-1.3,0.2-0.7
                            c4.9-1.5,2.8-9.2-2.1-7.7c-2.8,0.9-4.9,4-6.8,6c-2.6,2.6-7,7.4-11.1,6.9C513.2,270.9,511,278.6,516.1,279.3L516.1,279.3z"/>
        </g>

        <path class="primary-fill" d="M563.8,375.4c-14.3-15.6-21.3-34.4-26.1-55.8c-13.8,14.8-17.8,32.8-18,52.9c-21.4-6.5-29.7-16-31.3-42.5
            c-9.7,6.7-17,14.5-22.9,35.5c-15.7-14.2-18.2-19.6-25.5-39.5c-9.7,19.8-13.2,33.3-34,48c-10.5-17-21.3-34.7-42.4-43
            c7.9,28.7-13,45.7-13,45.7s-19.1-17-21.4-50.8c-8.6,12.6-17.9,25.3-19.1,43c-15.9-9.5-27.9-23.6-25-41.9
            c-13.3,11.8-21.4,29.3-21.6,47.1c-20.5-12.2-25.9-31-30.3-50.2C228,329,222.5,344,222.8,357c-12.8-13.6-22.5-16.8-40.9-19.9
            c13.4,9.1,17.5,26.6,18.1,42.9v20h400v-20c-0.3-17.5,1.9-35.7,15-47.4C589.3,328.7,571,347,563.8,375.4z"/>
    </g>
</svg>
