<?xml version="1.0" encoding="utf-8"?>
<!DOCTYPE svg PUBLIC "-//W3C//DTD SVG 1.1//EN" "http://www.w3.org/Graphics/SVG/1.1/DTD/svg11.dtd">

<svg
    version="1.1"
    xmlns="http://www.w3.org/2000/svg"
    viewBox="0 0 800 800"
>
    <g id="Head_5">
        <path class="primary-fill" d="M585.5,349.4c5.6-18.7,8.5-38.2,8.5-57.7c-8.8,15.5-21.3,28.8-36.2,38.5c2.2-30.3,9.2-63.3-19.3-86.8
            c1,23.7-11.6,47.6-31.8,60.1c-2.6-30.7-5.8-58.1-19.7-85.6c-0.8,24.5-18.3,45.7-37.6,60.8c-1.7-25.2-6.4-49.2-28.8-70.1
            c-4.3,17.6-7.6,32.9-21.8,50.3c-19.3-12.1-34.9-30.1-44-51c-0.9,22.4-2.6,44.7-4.9,67c-23.3-8.3-40.5-31.5-41.6-56.2
            c-17.3,21.4-15.9,51.8-13.7,79.1c-10.7-0.6-41.4-41-40.2-51.7c-21.5,21.8-13.8,49-5.5,77.8c-7.3-18.8-45.8-40.1-60.3-37.6
            c18.5,23.5,28,42,25.5,69.9c-12.1-14.6-32.6-21.6-51.1-17.5C193,353.5,200.6,385,200,400h400c0-35,7-49.5,38-55.5
            C620.5,329.5,597.1,341.1,585.5,349.4z"/>
    </g>
</svg>
