<?xml version="1.0" encoding="utf-8"?>
<!DOCTYPE svg PUBLIC "-//W3C//DTD SVG 1.1//EN" "http://www.w3.org/Graphics/SVG/1.1/DTD/svg11.dtd">

<svg
    version="1.1"
    xmlns="http://www.w3.org/2000/svg"
    viewBox="0 0 800 800"
>
    <g id="Head_6">
        <path class="primary-fill" d="M400,200c-110.5,0-200,89.5-200,200h400C600,289.5,510.5,200,400,200z"/>

        <path class="primary-fill" d="M201.1,392.2c0,0-0.4-0.5-1.3-1.4c-0.2-0.2-0.4-0.5-0.7-0.8l-0.2-0.2c0-0.1,0-0.1-0.1-0.1
            c0-0.1-0.1-0.1-0.1-0.2c-0.1-0.1-0.2-0.3-0.3-0.5c0-0.1-0.1-0.2-0.2-0.3c-0.1-0.1-0.2-0.2-0.3-0.4c-0.9-1-2-2.2-3.3-3.4
            c-1.4-1.2-3.1-2.5-5.1-3.7c-2-1.2-4.5-2.2-7.3-3c-2.8-0.8-6.1-1.3-9.5-1.3c-3.4-0.1-7.2,0.3-10.6,1.2c-1.7,0.4-3.3,1-4.6,1.5
            l-0.2,0.1l-0.1,0l0,0c-0.1,0.1,0.2-0.2,0.1-0.1l-0.1,0.1l-0.8,0.5c-0.3,0.2-0.5,0.3-0.6,0.4c-0.2,0.1-0.4,0.2-0.6,0.3
            c-0.9,0.6-1.8,1.2-2.8,1.9c-1.9,1.4-4,3.1-6.4,4.8c-2.3,1.8-4.9,3.6-7.7,5.2c-5.5,3.1-11.3,5.2-17,6.2c-5.7,1-11.2,1-16.2,0.3
            c-5-0.7-9.5-2.1-13.3-3.8c-7.7-3.4-13.1-7.9-16-11.7c-1.5-1.9-2.3-3.6-2.6-4.9c-0.1-0.6-0.2-1.1-0.2-1.4c0-0.3,0-0.5,0-0.5
            s0,0.2,0.1,0.5c0.1,0.3,0.2,0.7,0.5,1.2c0.6,1,1.8,2.3,3.6,3.5c3.5,2.5,9.5,4.9,16.6,5.6c3.6,0.4,7.4,0.3,11.3-0.3
            c3.9-0.6,7.7-1.9,11.2-3.8c3.5-1.9,6.7-4.4,9.4-7.4c2.4-2.8,4.7-6.7,7.9-11.3c0.8-1.1,1.7-2.4,2.6-3.6l1.6-1.9l0.6-0.8l1.1-1.1
            c2.7-2.7,5.4-4.9,8.1-6.8c5.5-3.9,11.3-6.7,17.3-8.9c6-2.1,12.1-3.5,18.1-4.1c6-0.6,11.9-0.5,17.3,0.3c5.4,0.7,10.4,2,14.7,3.4
            c4.3,1.5,7.9,3.1,10.8,4.6c0.4,0.2,0.7,0.4,1.1,0.5c0.4,0.2,0.7,0.4,1.1,0.6c0.7,0.4,1.4,0.8,2,1.2c0.3,0.2,0.6,0.4,0.9,0.5
            c0.1,0.1,0.3,0.2,0.4,0.2c0.1,0,0.2,0.1,0.3,0.1c0.3,0.2,0.6,0.4,0.9,0.5c1.1,0.6,1.6,0.9,1.6,0.9L201.1,392.2z"/>

        <path class="primary-fill" d="M235.8,316.9c0,0-0.2-0.1-0.5-0.2c-0.4-0.1-0.6-0.3-1.6-0.7c-0.4-0.2-0.9-0.4-1.5-0.6
            c-0.5-0.2-1-0.4-1.6-0.7c-1.1-0.5-2.4-1.1-3.8-1.8c-5.5-2.7-13-6.9-21.4-13.4c-4.2-3.2-8.5-7.1-12.8-11.8
            c-4.3-4.7-8.6-10.4-11.9-17.4l-0.3-0.7l-0.1-0.2c0.1,0.1-0.6-1.1-0.3-0.6l0-0.1l-0.1-0.2l-0.2-0.5l-0.3-0.7
            c-0.3-0.8-0.6-1.6-0.9-2.3l-0.5-1.7c-0.6-2.2-1-4.2-1.3-6c-0.5-3.5-0.7-6.5-0.9-9.1c-0.4-5.3-0.8-9.4-1.7-12.5
            c-0.9-3.1-2-5.3-4.3-7.5l-0.2-0.2l0,0c0.3,0.2,0.1,0,0.1,0.1l-0.1-0.1l-0.2-0.2l-0.4-0.4l-0.2-0.2c-0.1-0.1-0.1-0.1-0.1-0.1
            l-0.4-0.5l-0.5-0.5c-0.7-0.7-1.5-1.4-2.4-2.1c-1.7-1.3-3.5-2.6-5.5-3.7c-3.9-2.2-8.2-3.9-12.4-5.2c-4.2-1.3-8.5-2.1-12.4-2.5
            c-7.9-0.9-14.8-0.2-19.3,1.3c-2.3,0.7-4,1.6-5.1,2.3c-0.5,0.4-1,0.7-1.2,0.9c-0.3,0.2-0.4,0.3-0.4,0.3s0.1-0.2,0.2-0.5
            c0.2-0.3,0.4-0.8,0.8-1.3c0.8-1.1,2.1-2.7,4.2-4.4c4.1-3.4,10.8-7,19.7-9.5c4.4-1.3,9.4-2.3,14.7-2.8c5.4-0.5,11.2-0.6,17.4,0.1
            c3.1,0.4,6.3,1,9.6,1.9c1.6,0.4,3.3,1,4.9,1.6l1.2,0.5l1.4,0.6l0.3,0.1l0.2,0.1l0.5,0.2l0.2,0.1l0.1,0c0.1,0.1-0.1-0.1,0.2,0.1
            l0.1,0l0.6,0.4c3.4,2,6.8,4.6,9.7,7.7c2.9,3.1,5.4,6.6,7.3,10.1c1.9,3.6,3.3,7.1,4.5,10.5c1.1,3.3,2,6.5,2.7,9.3
            c0.7,2.8,1.4,5.3,2.1,7c0.3,0.8,0.6,1.5,0.9,1.8c0.1,0.1,0.1,0.1,0.2,0.2c0-0.1-0.1-0.3-0.1-0.5l0-0.1c0,0,0-0.1,0,0l0.1,0.2
            l0.3,0.4l0.1,0.2l0,0.1c0.3,0.5-0.4-0.7-0.3-0.5l0,0l0.2,0.2c2,2.1,4.5,4.2,7.3,6c2.8,1.8,5.8,3.4,8.8,4.7
            c5.9,2.6,11.4,4.1,15,4.8c0.9,0.2,1.7,0.3,2.4,0.5c0.3,0.1,0.7,0.1,1,0.2c0.3,0,0.4,0,0.6,0.1c0.3,0,0.9,0.1,1.2,0.2
            c0.3,0.1,0.5,0.1,0.5,0.1L235.8,316.9z"/>

        <path class="primary-fill" d="M270.2,248.1l0.3-0.5l0.2-0.3c0-0.1,0,0,0,0l0,0.1c0,0.1,0,0.3,0,0.4l0,0.1c0,0,0,0,0,0l0.1,0
            c0.1,0,0.2,0,0.3-0.1c0.1,0,0.2-0.1,0.3-0.2c0.4-0.4,0.9-0.9,1.3-1.6c0.9-1.4,1.6-3.1,2.3-4.9c1.3-3.6,2.1-7.7,2.4-11.9
            c0.3-4.2-0.1-8.6-1.1-13l-0.2-0.8l-0.1-0.4l-0.1-0.2l0-0.1l0-0.1c-0.1-0.1,0.5,0.7,0.2,0.3l0,0l-0.6-1l-0.1-0.1c0,0,0,0,0,0l0,0
            l0,0c0.1,0-0.1-0.2-0.1-0.3c-0.1-0.1-0.1-0.3-0.2-0.4c-0.1-0.3-0.3-0.6-0.5-0.9c-0.8-1.2-1.9-2.5-3.4-3.9
            c-1.5-1.4-3.4-2.8-5.5-4.2c-2.1-1.4-4.5-2.8-7-4.2c-5.1-2.8-10.8-5.7-16.8-9.2c-3-1.8-6.1-3.7-9.2-6c-3.1-2.3-6.2-4.9-9-8
            c-2.9-3.1-5.5-6.7-7.4-10.7c-2-4-3.3-8.2-3.9-12.3l-0.3-1.8l0-0.1c0.1-2,0.4-3.5,0.6-5.1c0.3-1.6,0.6-3.1,0.9-4.6
            c0.7-3,1.5-5.9,2.4-8.9c1.9-5.8,4.3-11.4,7.6-16.7c1.6-2.6,3.5-5.1,5.6-7.4c2.1-2.3,4.5-4.3,7.1-5.9c2.6-1.6,5.4-2.8,8.2-3.5
            c2.8-0.7,5.7-0.9,8.4-0.8c-2.6,0.9-5.1,2-7.2,3.5c-2.2,1.5-4,3.3-5.5,5.3c-3,4-4.7,8.6-5.6,13.4c-0.9,4.8-1.2,9.8-0.9,14.7
            c0.1,2.5,0.4,4.9,0.7,7.4c0.2,1.2,0.4,2.4,0.6,3.6c0.2,1.1,0.5,2.3,0.8,3.1l-0.3-1.9c0.8,1.9,1.7,3.4,2.9,4.7
            c1.1,1.3,2.5,2.5,4.1,3.6c3.2,2.2,7.6,4.1,12.7,5.8c5.1,1.7,10.9,3.3,17.1,5.2c3.1,1,6.4,2.1,9.7,3.4c3.4,1.3,6.9,2.9,10.5,4.9
            c3.6,2,7.3,4.5,10.9,7.6c0.9,0.8,1.8,1.6,2.6,2.5c0.4,0.4,0.9,0.9,1.3,1.3c0.4,0.5,0.8,0.9,1.3,1.5l1.3,1.6l0.7,0.9l0,0
            c-0.2-0.3,0.3,0.5,0.3,0.4l0.1,0.1l0.1,0.1l0.3,0.3l0.5,0.6l1,1.1c5.4,6.1,10.1,13,13.8,20.6c1.9,3.8,3.5,7.7,4.9,11.8
            c1.4,4.1,2.6,8.3,3.4,12.6c0.9,4.3,1.5,8.8,1.7,13.6c0.1,2.4,0.1,4.9,0,7.5c0,0.7-0.1,1.3-0.1,2c-0.1,0.7-0.1,1.4-0.2,2.2
            l-0.1,0.6l0,0.3l-0.1,0.4l-0.3,1.5l-0.1,0.4c0,0.1-0.1,0.3-0.1,0.3l0,0.3l0,0.6L270.2,248.1z"/>

        <path class="primary-fill" d="M364.1,204.1c0,0,0.1-0.2,0.3-0.5c0,0,0-0.1,0.1-0.1l0-0.1l0,0l0,0.1c0,0.2-0.1,0.3-0.1,0.5
            c0,0.2-0.1,0.4-0.1,0.6c0,0.1,0,0.2,0,0.3c0,0.9,0.1,2.5,0.7,3.4c0.3,0.4,0.5,0.6,0.8,0.4c0.2-0.2,0.4-0.8,0.3-1.8
            c0-1.9-0.9-5.3-2.3-9.9c-1.4-4.6-3.5-10.4-5.1-18.1c-0.8-3.9-1.4-8.3-1.4-13.1c0-1.2,0-2.4,0.1-3.7l0.1-0.9l0-0.1
            c0-0.7,0-0.2,0-0.4l0-0.1l0-0.3l0.2-1.1c0.1-0.9,0.3-2.2,0.5-3.2c0.2-1,0.4-2,0.6-3c0.9-4,2.1-8.1,3.8-12c1.6-3.9,3.7-7.7,6-11
            c4.6-6.8,9.8-12,14.3-16.3c4.5-4.3,8.3-7.9,11.2-11.6c2.9-3.7,4.8-7.7,6-12.4c0.6-2.3,0.9-4.8,1.1-7.2l0-0.5l0-0.2l-0.1-0.1
            c0-0.1-0.1,0.1-0.1,0v-0.1l0.1-1.1c0-0.6,0.1-1.3,0.1-1.9c0-1.2,0-2.4-0.1-3.6c-0.3-4.7-1.3-8.7-3.3-11.9c-1.9-3.2-4.9-5.6-8-7.2
            c-3.1-1.6-6.2-2.6-8.8-3.3c-2.6-0.7-4.7-1-6.2-1.3c-1.4-0.2-2.2-0.4-2.2-0.4s0.8-0.1,2.2-0.3c1.5-0.2,3.6-0.4,6.4-0.5
            c2.8-0.1,6.2-0.1,10.3,0.7c2,0.4,4.2,1,6.4,2c2.2,1,4.5,2.4,6.7,4.3c4.3,3.7,7.5,9.1,9.7,14.8c0.6,1.4,1,2.8,1.5,4.4
            c0.2,0.7,0.4,1.5,0.6,2.2l0.3,1l0,0.1c0,0,0,0.2,0,0.2l0,0.1l0.1,0.3l0.1,0.6c0.8,3.1,1.4,6.4,1.7,9.8c0.3,3.5,0.3,7.2-0.2,10.9
            c-0.4,3.7-1.3,7.6-2.5,11.2c-2.4,7.3-6.1,13.8-9.1,19.3c-3,5.5-5.3,10.3-6.3,14.4c-1,4.1-1,7.5-0.4,11.1c0.1,0.4,0.1,0.9,0.2,1.3
            c0.1,0.5,0.2,0.5,0.3,1.1l0.2,1.1l0,0.3l0,0.1c0-0.1,0,0.4,0-0.3l0,0l0.1,0.1l0.4,0.5c0.7,1,1.4,2,2,2.9c1.7,2.4,4.1,5.7,6.8,9.4
            c2.7,3.7,5.6,8,8.2,13.2c1.3,2.6,2.5,5.4,3.5,8.3c1,3,1.7,6.1,2.1,9.2c0.4,3.1,0.5,6.2,0.4,8.9c-0.1,2.7-0.5,5.1-0.9,7
            c-0.1,0.5-0.2,0.9-0.3,1.3c-0.1,0.5-0.3,1-0.4,1.5c-0.1,0.5-0.3,0.9-0.4,1.3l0,0.1l0,0l0,0.1c0,0.1,0,0.1,0,0.1
            c-0.1,0.4-0.1,0.6-0.1,0.6L364.1,204.1z"/>

        <path class="primary-fill" d="M454.7,228.2c0,0,0.2-0.7,0.5-2c0.3-1.4,0.8-3.5,1.5-6.2c0.7-2.8,1.5-6.3,2.7-10.4
            c1.2-4.1,2.7-8.8,4.7-13.9c2-5.1,4.6-10.8,8.2-16.7c3.6-5.9,8.4-12.1,14.8-17.6c0.8-0.7,1.7-1.3,2.5-2l0.6-0.5
            c0.3-0.2-0.5,0.4,0.6-0.5l0.1,0l0.1-0.1l0.2-0.1l0.9-0.5l0.5-0.3l0.9-0.6c0.6-0.4,1.2-0.7,1.8-1.1c0.3-0.2,0.6-0.4,0.9-0.5
            l0.8-0.4l1.6-0.8c4.2-1.9,8.4-3.1,12.4-3.9c8-1.4,15-1.2,21.4-0.8c6.4,0.4,12.2,1.2,17.2,1.5c2.5,0.2,4.9,0.2,6.8,0.1
            c0.5,0,1,0,1.4-0.1c0.5,0,0.8-0.1,1.3-0.1c0.2,0,0.4-0.1,0.6-0.1l0.3,0l0.1,0l0,0c0.2-0.1-0.2,0.1-0.1,0.1l0.1,0l0.5-0.2
            c0.2-0.1,0.4-0.1,0.4-0.1c0.2,0,0.3,0,0.5-0.1c3.5-1.2,7-3.8,9.8-7.1c2.9-3.2,5.2-7,6.9-10.7c1.7-3.7,2.9-7.4,3.7-10.8
            c0.7-3.4,1-6.4,1-8.9c0-2.5-0.4-4.5-0.8-5.8c-0.2-0.7-0.4-1.2-0.5-1.5c-0.1-0.3-0.2-0.5-0.2-0.5s0.1,0.1,0.4,0.4
            c0.2,0.3,0.6,0.7,1,1.3c0.8,1.2,1.9,3,2.8,5.6c1.8,5.1,3.2,13,2.2,22.6c-0.5,4.8-1.6,10.1-3.8,15.6c-2.2,5.5-5.6,11.3-11.3,16.3
            c-0.3,0.3-0.8,0.7-1.2,1c-0.2,0.2-0.4,0.3-0.5,0.4l-0.4,0.3l-1.4,0.9c-0.4,0.3-0.9,0.6-1.3,0.8c-0.9,0.5-1.8,1-2.7,1.4
            c-0.9,0.4-1.8,0.8-2.6,1.2c-3.5,1.4-6.9,2.4-10.1,3.2c-6.4,1.6-12.4,2.6-17.8,3.9c-5.3,1.3-10,2.8-13.2,4.7
            c-1.6,0.9-2.7,1.9-3.4,2.9l-0.3,0.3l-0.1,0.2c0,0,0,0.1,0,0.1c0,0,0.1,0.1,0.1,0.1c0,0,0,0,0,0l-0.4,0.4l-0.7,0.8l-0.2,0.2
            l-0.1,0.1l0,0c1.1-0.9,0.3-0.2,0.5-0.4l-0.1,0.2c-0.2,0.3-0.4,0.5-0.5,0.9c-1.3,2.4-2.4,5.3-3.2,8.5c-0.8,3.2-1.3,6.6-1.6,10
            c-0.3,3.3-0.4,6.6-0.5,9.6c0,3,0,5.7,0.1,8c0.1,2.5,0.1,4.4,0.2,5.7c0,1.4,0,2.2,0,2.2L454.7,228.2z"/>

        <path class="primary-fill" d="M528.6,281.9c0,0,0.5-0.5,1.4-1.5c0.1-0.1,0.1-0.1,0.2-0.2c0.1-0.1,0.2-0.3,0.3-0.4
            c0.2-0.3,0.5-0.6,0.8-0.9c0.5-0.6,1.1-1.3,1.7-2c1.2-1.2,2.5-2.6,4.2-4.1c1.7-1.5,3.7-3.2,6.1-4.9c2.4-1.7,5.2-3.3,8.2-4.8
            c3-1.4,6.2-2.5,9-3.3c2.9-0.8,5.4-1.2,7.5-1.4c4.1-0.5,6.2-0.4,8.5-0.7c1.2-0.2,2.4-0.5,3.8-1c0.7-0.3,1.4-0.6,2.2-1
            c0.4-0.2,0.8-0.4,1.1-0.7l0.1-0.1c-0.1,0.1,0.3-0.3-0.2,0.2l0,0l0.1-0.1l0.4-0.3l0.4-0.3c0.1-0.1,0.1-0.1,0.1-0.1l0.1,0
            c0.1,0,0.1,0,0.2-0.1l0.4-0.2c0.2-0.2,0.5-0.3,0.7-0.5c0.5-0.4,1-0.8,1.5-1.3c0.9-1,1.8-2.1,2.7-3.7c1.6-3,2.8-7.3,3.6-12.2
            c0.8-5,1.2-10.6,2-16.9c0.4-3.1,1-6.5,2.1-10c0.6-1.8,1.3-3.6,2.2-5.4c0.5-0.9,1-1.8,1.6-2.7c0.1-0.2,0.3-0.4,0.5-0.6l0.2-0.3
            l0.1-0.2l0.1-0.1c0.3-0.4,0.1-0.1,0.2-0.2l0.7-0.8c0.4-0.4,0.7-0.9,1.1-1.2c0.3-0.3,0.7-0.7,1-1c0.7-0.6,1.4-1.2,2.1-1.8
            c1.4-1.1,2.9-2,4.4-2.8c3-1.5,5.9-2.4,8.7-3c5.6-1.1,10.6-1,15.1-0.7c4.5,0.4,8.4,1.1,11.8,1.9c3.4,0.8,6.3,1.6,8.7,2.4
            c2.4,0.8,4.2,1.4,5.4,1.9c1.2,0.5,1.9,0.7,1.9,0.7s-0.7,0-2-0.1c-1.3-0.1-3.2-0.1-5.7-0.1c-2.4,0-5.4,0.1-8.7,0.4
            c-3.3,0.3-7,0.8-10.9,1.7c-3.8,0.9-7.9,2.2-11.3,4.2c-1.7,1-3.3,2.2-4.5,3.4c-0.6,0.6-1.1,1.3-1.5,2c-0.2,0.3-0.4,0.7-0.5,1
            c-0.1,0.2-0.1,0.3-0.2,0.5c-0.1,0.2,0,0.2-0.1,0.4c0,0,0,0.1-0.1,0.2l-0.1,0.2l-0.2,0.5c0-0.1-0.1,0.2,0.1-0.1l0,0l0,0.1l0,0.1
            c0,0.1,0,0.1,0,0.2c0,0.3-0.1,0.6-0.1,0.9c0,0.6,0,1.4,0.1,2.3c0.1,1.7,0.4,3.8,0.9,6.2c0.9,4.7,2.3,10.1,3.4,16.3
            c1.1,6.1,1.8,13.1,0.9,20.7c-0.4,3.8-1.3,7.8-2.7,11.7c-0.7,1.9-1.5,3.9-2.4,5.7c-0.5,0.9-1,1.8-1.5,2.7l-0.8,1.3
            c-0.3,0.5-0.6,1-1,1.5l-0.3,0.4c-0.1,0.1-0.2,0.3-0.2,0.3l-0.3,0.4l-0.3,0.4l-0.1,0.1l0,0.1c-0.5,0.5-0.2,0.2-0.3,0.3l-0.2,0.3
            c-0.5,0.7-1,1.5-1.5,2.2c-1,1.4-2.1,2.9-3.3,4.3c-2.3,2.8-5,5.5-7.9,7.9c-2.9,2.4-5.9,4.5-8.8,6.2c-2.8,1.7-5.4,3.1-7.3,4.2
            c-1.9,1.1-3.1,2-3.8,2.7c-0.6,0.7-0.7,1.2-0.6,1.5c0.1,0.3,0.4,0.6,0.5,0.8c0.2,0.3,0.3,0.5,0.4,0.8c0.1,0.3,0.1,0.6,0.1,0.9
            c0.1,0.1,0.2,0.1,0.2,0.2l0.1,0l0,0c0,0.1-0.1,0.2-0.1,0.2c-0.5,1.2-0.7,1.9-0.7,1.9L528.6,281.9z"/>

        <path class="primary-fill" d="M560.2,355.2c0,0,0.2-0.1,0.5-0.3c0.2-0.1,0.4-0.2,0.6-0.4c0.1-0.1,0.3-0.1,0.4-0.2
            c0.2-0.1,0.4-0.2,0.6-0.4c0.4-0.3,0.9-0.6,1.5-0.9c0.5-0.3,1-0.6,1.6-0.9c1.2-0.7,2.5-1.4,4-2.2c6-3.2,14.4-7.1,25-10.8
            c5.3-1.8,11.1-3.5,17.4-4.9c6.3-1.4,13.1-2.5,20.4-2.8c3.7-0.2,7.4-0.1,11.3,0.2l0.4,0l0.2,0l0.1,0c0.2,0-0.3,0,0.5,0l0.6,0
            l1.2,0.1c1,0.1,2,0.2,3.1,0.2l0.8,0.1l0.8,0.1l1.5,0.2c1,0.1,2,0.4,2.9,0.5c7.7,1.6,14.7,4.6,20.8,7.9c6.1,3.3,11.6,6.8,16.6,9.7
            c2.5,1.4,4.9,2.7,7.1,3.6c1.1,0.5,2.2,0.8,3.2,1c1.1,0.2,1.7,0.4,3.5,0.3c1.2,0,2.5-0.1,3.7-0.3c1.3-0.2,2.5-0.4,3.7-0.7
            c2.4-0.6,4.7-1.4,6.8-2.5c4.2-2.2,7.7-5.3,10.4-8.8c2.7-3.5,4.6-7.3,6.1-10.7c1.4-3.5,2.3-6.7,3-9.4c0.6-2.7,1-4.8,1.3-6.3
            c0.1-0.7,0.2-1.3,0.3-1.7c0.1-0.4,0.2-0.6,0.2-0.6s-0.1,0.2,0,0.6c0,0.4,0,1,0,1.7c0,1.5,0.1,3.7,0,6.5
            c-0.1,2.8-0.4,6.2-1.2,10.2c-0.8,3.9-2,8.4-4.3,12.9c-2.3,4.6-5.7,9.3-10.6,13.2c-2.4,1.9-5.2,3.6-8.1,5c-1.5,0.7-3,1.3-4.6,1.8
            c-1.6,0.6-3.2,1-4.9,1.4c-1.2,0.3-3.6,0.8-5.5,0.9c-2,0.1-4,0.1-5.8-0.2c-3.7-0.4-7.2-1.2-10.5-2.1c-6.5-1.8-12.5-3.8-18.2-5.1
            c-5.7-1.4-10.9-2-15.6-1.6c-0.6,0.1-1.2,0.1-1.7,0.2l-0.8,0.1c-0.1,0-0.3,0-0.4,0.1l-0.3,0.1l-0.6,0.1l-0.9,0.2l-1.1,0.2
            l-0.6,0.1c0.7,0,0.2,0,0.3,0l-0.1,0l-0.1,0l-0.2,0.1c-2.2,0.8-4.4,1.8-6.6,2.9c-4.3,2.2-8.3,4.9-12.1,7.7
            c-3.7,2.8-7.1,5.7-10.1,8.5c-6,5.7-10.5,10.9-13.3,14.5c-0.7,0.9-1.3,1.7-1.8,2.4c-0.2,0.3-0.5,0.7-0.7,1
            c-0.1,0.3-0.3,0.5-0.4,0.7c-0.1,0.1-0.1,0.2-0.2,0.3c-0.1,0.1-0.2,0.3-0.3,0.4c-0.2,0.2-0.3,0.4-0.4,0.6
            c-0.2,0.3-0.4,0.5-0.4,0.5L560.2,355.2z"/>
    </g>
</svg>
