<?xml version="1.0" encoding="utf-8"?>
<!DOCTYPE svg PUBLIC "-//W3C//DTD SVG 1.1//EN" "http://www.w3.org/Graphics/SVG/1.1/DTD/svg11.dtd">

<svg
    version="1.1"
    xmlns="http://www.w3.org/2000/svg"
    x="0px" y="0px"
    viewBox="0 0 800 800"
    enable-background="new 0 0 800 800"
    xml:space="preserve"
>
    <g id="Head_5">
        <path class="secondary-fill" d="M400,200c-110.5,0-200,89.5-200,200h400C600,289.5,510.5,200,400,200z"/>
        <path class="primary-fill" d="M545,345c-21.3,0-39.7,12.1-48.8,29.7c-6.3-4.2-14-6.7-22.2-6.7c-14.6,0-27.4,7.8-34.4,19.6
            c-9.1-8.4-21.3-13.6-34.6-13.6c-6.2,0-12.2,1.1-17.8,3.2c-3.6-18.3-19.8-32.2-39.2-32.2c-10.8,0-20.7,4.3-27.9,11.3
            C307.6,341.5,288.9,332,268,332c-37.6,0-68,30.4-68,68h400C600,369.6,575.4,345,545,345z"/>
        <circle class="primary-fill" cx="316" cy="281" r="30"/>
        <circle class="primary-fill" cx="491" cy="304" r="34"/>
        <circle class="primary-fill" cx="409" cy="237" r="24"/>
        <circle class="primary-fill" cx="400" cy="317.5" r="17.5"/>
    </g>
</svg>
