<?xml version="1.0" encoding="utf-8"?>
<!DOCTYPE svg PUBLIC "-//W3C//DTD SVG 1.1//EN" "http://www.w3.org/Graphics/SVG/1.1/DTD/svg11.dtd">

<svg
    version="1.1"
    xmlns="http://www.w3.org/2000/svg"
    viewBox="0 0 800 800"
>
    <g id="Head_8">
        <path class="secondary-fill" d="M505,226.5c-34.7-26.6-53.4-95-55.5-113c-4.3,3.4-0.3,7.8-5.4,9.8c-7.6-0.8-11.9-9.7-13.1-14.7
            c-3.1,4.9-2.3,8.5-2.8,14.1c-5.8-8.1-15.2-11.4-24.7-14.1c6.8,13.1,12.9,26.9,15.5,41.4c3.6,19.7,0.7,40.6-8.2,58.6
            c-5.4,11-12.9,20.9-17.2,32.3c-4.5,12-5.2,25.1-5.8,37.9l-2.5-3c-4.9-9.4-8.1-19.5-9.6-30c-1.5-10.3-1.3-20.7-1-31.1
            c0.3-12,0.5-24.2,3.9-35.7c3.9-13.3,12.6-26.7,8.8-40c-2.5,7.3-7.6,13.6-12.2,19.7c2.8-4.8,1-10.9-1.8-15.6
            c-2.8-4.7-8.3-6.8-9.8-12.1c-5,41.6-32.6,66.3-65.1,90.3c-25.3,18.7-52.5,37.8-66.7,65.8L231,287v100v1h339l0.4-90.6
            C555.5,266,529.9,245.6,505,226.5z"/>
        <path class="primary-fill" d="M674,292.5c-42-20.6-164.5,0-189,86C462.5,296,400,276,400,276s-52.5,15-84.5,90
            c-15.2-62.6-105.3-125-203.1-91.9c23.4-0.9,91.1,58.8,87.6,125.9h400C601.4,390.5,613.5,298.9,674,292.5z"/>
        <path class="secondary-fill" d="M380.5,173.6c9-4.7,18.2-9.7,24.4-17.7c6.2-8,10.2-16.2,8.2-26.2c0,0,3.2,5.9,5.9,20.4
            c3.6,19.7,0.7,40.6-8.2,58.6c-5.4,11-12.9,20.9-17.2,32.3c-4.5,12-5.2,25.1-5.8,37.9l-2.5-3c-4.9-9.4-8.1-19.5-9.6-30
            c-1.5-10.3-1.3-20.7-1-31.1c0.3-12,0.5-24.2,3.9-35.7"/>

        <g opacity="0.2">
            <path d="M380.5,173.6c9-4.7,18.2-9.7,24.4-17.7c6.2-8,10.2-16.2,8.2-26.2c0,0,3.2,5.9,5.9,20.4
            c3.6,19.7,0.7,40.6-8.2,58.6c-5.4,11-12.9,20.9-17.2,32.3c-4.5,12-5.2,25.1-5.8,37.9l-2.5-3c-4.9-9.4-8.1-19.5-9.6-30
            c-1.5-10.3-1.3-20.7-1-31.1c0.3-12,0.5-24.2,3.9-35.7"/>

            <path d="M435.3,160c4.9,21.9-0.8,44.8-9.4,65.1c-6.8,15.7-13.7,34.4-7.3,51.4c0.9,2.4,4.8,1.4,3.9-1.1
                c-6.7-17.7,1.9-36.1,8.5-52.3c8.2-20.1,13-42.6,8.2-64.2C438.6,156.5,434.7,157.5,435.3,160L435.3,160z"/>

            <path d="M446,166c-0.8,11.1,0.3,22.5,1.8,33.4c1.9,14.3,5.1,29.3,13,41.6c3.6,5.6,8.7,9,13.5,13.4c5.8,5.4,10.4,12.1,13.8,19.3
                    c9.7,20,7.9,43.2,1,63.7c-0.8,2.5,3,3.5,3.9,1.1c6.5-19.2,8.2-39.8,1.7-59.3c-2.4-7.2-6.2-14.2-10.9-20.2
                    c-4.6-5.9-10.5-9.9-15.7-15.1c-10.6-10.7-13.9-28.5-16-42.8c-1.8-11.5-2.9-23.6-2-35.2C450.2,163.4,446.2,163.4,446,166L446,166
                    z"/>

            <path d="M364.6,172.5c-5.9,29-28,48.4-47.7,68.7c-8.8,9.1-17.2,18.8-22.9,30.2c-6,12-7.6,25.3-5.7,38.5c0.4,2.5,4.2,1.5,3.9-1.1
                    c-1.9-13.7,0.5-27,7.2-39.1c6.4-11.5,15.8-21.1,25-30.4c18.9-19.1,38.5-38.4,44.1-65.7C368.9,171,365.1,169.9,364.6,172.5
                    L364.6,172.5z"/>

            <path d="M493,241.7c22.6,15,39.6,36,46,62.7c0.6,2.5,4.5,1.4,3.9-1.1c-6.7-27.7-24.4-49.6-47.8-65.1
                    C492.9,236.8,490.9,240.3,493,241.7L493,241.7z"/>

            <path d="M348.2,294.7c-8.4-13.8-6.4-29-0.2-43.3c2.3-5.3,5.2-10.4,7.9-15.6c1.5-2.9,3.4-6.1,3.6-9.5c0.1-2.6-3.9-2.6-4,0
                    c-0.2,3.7-3.2,7.7-4.9,10.9c-3,5.6-5.9,11.3-8.2,17.3c-5.4,14-5.6,29.1,2.3,42.2C346.1,298.9,349.5,296.9,348.2,294.7
                    L348.2,294.7z"/>
        </g>
    </g>
</svg>
