<?xml version="1.0" encoding="utf-8"?>
<!DOCTYPE svg PUBLIC "-//W3C//DTD SVG 1.1//EN" "http://www.w3.org/Graphics/SVG/1.1/DTD/svg11.dtd">

<svg
    version="1.1"
    xmlns="http://www.w3.org/2000/svg"
    viewBox="0 0 800 800"
>
    <g id="Eyes_1">
        <circle fill="#FFFFFF" cx="309" cy="500" r="76"/>
        <path fill="#001C43" d="M383.5,484.8c-7-34.7-37.7-60.8-74.5-60.8c-11.7,0-22.8,2.7-32.7,7.4c-3,7.2-4.7,15.1-4.7,23.3
            c0,33.1,26.9,60,60,60C353.7,514.7,373.1,502.7,383.5,484.8z"/>
        <circle fill="#FFFFFF" cx="347.5" cy="451.3" r="10"/>
        <circle fill="#FFFFFF" cx="509" cy="488" r="50"/>
        <path fill="#001C43" d="M469.6,457.2c1.3,20.9,18.7,37.5,39.9,37.5c20.8,0,37.9-15.9,39.8-36.2c-9.7-13.2-25.6-21.4-43.1-20.4
            C491.3,438.9,478.2,446.2,469.6,457.2z"/>
    </g>
</svg>
