<?xml version="1.0" encoding="utf-8"?>
<!DOCTYPE svg PUBLIC "-//W3C//DTD SVG 1.1//EN" "http://www.w3.org/Graphics/SVG/1.1/DTD/svg11.dtd">

<svg
    version="1.1"
    xmlns="http://www.w3.org/2000/svg"
    viewBox="0 0 800 800"
>
    <g id="Eyes_11">
        <circle fill="#FFFFFF" cx="309" cy="500" r="76"/>
        <path fill="#001C43" d="M383.5,484.8c-7-34.7-37.7-60.8-74.5-60.8c-11.7,0-22.8,2.7-32.7,7.4
            c-3,7.2-4.7,15.1-4.7,23.3c0,33.1,26.9,60,60,60C353.7,514.7,373.1,502.7,383.5,484.8z"/>
        <circle fill="#FFFFFF" cx="347.5" cy="451.3" r="10"/>
        <circle fill="#FFFFFF" cx="491" cy="500" r="76"/>
        <path fill="#001C43" d="M416.5,484.8c7-34.7,37.7-60.8,74.5-60.8c11.7,0,22.8,2.7,32.7,7.4
            c3,7.2,4.7,15.1,4.7,23.3c0,33.1-26.9,60-60,60C446.3,514.7,426.9,502.7,416.5,484.8z"/>
        <circle fill="#FFFFFF" cx="452.5" cy="451.3" r="10"/>
    </g>
</svg>
