<?xml version="1.0" encoding="utf-8"?>
<!DOCTYPE svg PUBLIC "-//W3C//DTD SVG 1.1//EN" "http://www.w3.org/Graphics/SVG/1.1/DTD/svg11.dtd">

<svg
    version="1.1"
    xmlns="http://www.w3.org/2000/svg"
    viewBox="0 0 800 800"
>
    <g id="Eyes_12">
        <path fill="#FFFFFF" d="M398.2,532.9l-126.9-59.2c-16.3,35-1.2,76.7,33.9,93S381.9,567.9,398.2,532.9z"/>
        <path fill="#001C43" d="M320,535c17.5,8.2,38.3,0.6,46.5-16.9l-63.4-29.6C294.9,506,302.5,526.8,320,535z"/>
        <path fill="#FFFFFF" d="M528.6,473.7l-126.9,59.2c16.3,35,58,50.2,93,33.9S545,508.7,528.6,473.7z"/>
        <path fill="#001C43" d="M480,535c17.5-8.2,25.1-29,16.9-46.5l-63.4,29.6C441.7,535.6,462.5,543.2,480,535z"/>
    </g>
</svg>
