<?xml version="1.0" encoding="utf-8"?>
<!DOCTYPE svg PUBLIC "-//W3C//DTD SVG 1.1//EN" "http://www.w3.org/Graphics/SVG/1.1/DTD/svg11.dtd">

<svg
    version="1.1"
    xmlns="http://www.w3.org/2000/svg"
    x="0px" y="0px"
    viewBox="0 0 800 800"
    enable-background="new 0 0 800 800"
    xml:space="preserve"
>
    <g id="Eyes_9">
        <circle fill="#FFFFFF" cx="491" cy="500" r="76"/>
        <path fill="#001C43" d="M416.5,515.2c7,34.7,37.7,60.8,74.5,60.8c11.7,0,22.8-2.7,32.7-7.4c3-7.2,4.7-15.1,4.7-23.3
            c0-33.1-26.9-60-60-60C446.3,485.3,426.9,497.3,416.5,515.2z"/>
        <circle fill="#FFFFFF" cx="452.5" cy="548.7" r="10"/>
        <circle fill="#FFFFFF" cx="309" cy="500" r="76"/>
        <path fill="#001C43" d="M234.5,515.2c7,34.7,37.7,60.8,74.5,60.8c11.7,0,22.8-2.7,32.7-7.4c3-7.2,4.7-15.1,4.7-23.3
            c0-33.1-26.9-60-60-60C264.3,485.3,244.9,497.3,234.5,515.2z"/>
        <circle fill="#FFFFFF" cx="270.5" cy="548.7" r="10"/>
    </g>
</svg>
