<?xml version="1.0" encoding="utf-8"?>
<!-- Generator: Adobe Illustrator 18.0.0, SVG Export Plug-In . SVG Version: 6.00 Build 0)  -->
<!DOCTYPE svg PUBLIC "-//W3C//DTD SVG 1.1//EN" "http://www.w3.org/Graphics/SVG/1.1/DTD/svg11.dtd">
<svg version="1.1" xmlns="http://www.w3.org/2000/svg" xmlns:xlink="http://www.w3.org/1999/xlink" x="0px" y="0px"
	 viewBox="0 0 800 800" enable-background="new 0 0 800 800" xml:space="preserve">
<g id="Body">
	<rect x="200" y="400" fill="#29ABE2" width="400" height="400"/>
</g>
<g id="Eyes">
	<g id="Eyes_0">
		<circle fill="#FFFFFF" cx="400" cy="500" r="100"/>
		<path fill="#001C43" d="M410.3,551.6c43,0,79-30.2,87.9-70.5c-8.8-46.2-49.4-81.1-98.2-81.1c-30.1,0-57.2,13.3-75.5,34.4
			c-2.7,8.6-4.2,17.7-4.2,27.2C320.3,511.3,360.6,551.6,410.3,551.6z"/>
		<circle fill="#FFFFFF" cx="429.6" cy="445.1" r="25"/>
	</g>
	<g id="Eyes_1" display="none">
		<circle display="inline" fill="#FFFFFF" cx="309" cy="500" r="76"/>
		<path display="inline" fill="#001C43" d="M383.5,484.8c-7-34.7-37.7-60.8-74.5-60.8c-11.7,0-22.8,2.7-32.7,7.4
			c-3,7.2-4.7,15.1-4.7,23.3c0,33.1,26.9,60,60,60C353.7,514.7,373.1,502.7,383.5,484.8z"/>
		<circle display="inline" fill="#FFFFFF" cx="347.5" cy="451.3" r="10"/>
		<circle display="inline" fill="#FFFFFF" cx="509" cy="488" r="50"/>
		<path display="inline" fill="#001C43" d="M469.6,457.2c1.3,20.9,18.7,37.5,39.9,37.5c20.8,0,37.9-15.9,39.8-36.2
			c-9.7-13.2-25.6-21.4-43.1-20.4C491.3,438.9,478.2,446.2,469.6,457.2z"/>
	</g>
	<g id="Eyes_2" display="none">
		<circle display="inline" fill="#FFFFFF" cx="400" cy="500" r="100"/>
		<circle display="inline" fill="#001C43" cx="400" cy="500" r="50"/>
	</g>
	<g id="Eyes_3" display="none">
		<path display="inline" fill="#FFFFFF" d="M500,500H300c0,55.2,44.8,100,100,100S500,555.2,500,500z"/>
		<path display="inline" fill="#001C43" d="M400,550c27.6,0,50-22.4,50-50H350C350,527.6,372.4,550,400,550z"/>
	</g>
	<g id="Eyes_4" display="none">
		<path display="inline" fill="#FFFFFF" d="M400,500H260c0,38.7,31.3,70,70,70S400,538.7,400,500z"/>
		<path display="inline" fill="#001C43" d="M330,535c19.3,0,35-15.7,35-35h-70C295,519.3,310.7,535,330,535z"/>
		<path display="inline" fill="#FFFFFF" d="M540,500H400c0,38.7,31.3,70,70,70S540,538.7,540,500z"/>
		<path display="inline" fill="#001C43" d="M470,535c19.3,0,35-15.7,35-35h-70C435,519.3,450.7,535,470,535z"/>
	</g>
	<g id="Eyes_5" display="none">
		<circle display="inline" fill="#FFFFFF" cx="487" cy="488" r="50"/>
		<path display="inline" fill="#001C43" d="M447.6,457.2c1.3,20.9,18.7,37.5,39.9,37.5c20.8,0,37.9-15.9,39.8-36.2
			c-9.7-13.2-25.6-21.4-43.1-20.4C469.3,438.9,456.2,446.2,447.6,457.2z"/>
		<circle display="inline" fill="#FFFFFF" cx="316" cy="488" r="50"/>
		<path display="inline" fill="#001C43" d="M276.6,457.2c1.3,20.9,18.7,37.5,39.9,37.5c20.8,0,37.9-15.9,39.8-36.2
			c-9.7-13.2-25.6-21.4-43.1-20.4C298.3,438.9,285.2,446.2,276.6,457.2z"/>
	</g>
	<g id="Eyes_6" display="none">
		<circle display="inline" fill="#FFFFFF" cx="309" cy="500" r="76"/>
		<path display="inline" fill="#001C43" d="M383.5,484.8c-7-34.7-37.7-60.8-74.5-60.8c-11.7,0-22.8,2.7-32.7,7.4
			c-3,7.2-4.7,15.1-4.7,23.3c0,33.1,26.9,60,60,60C353.7,514.7,373.1,502.7,383.5,484.8z"/>
		<circle display="inline" fill="#FFFFFF" cx="347.5" cy="451.3" r="10"/>
		<circle display="inline" fill="#FFFFFF" cx="491" cy="500" r="76"/>
		<path display="inline" fill="#001C43" d="M565.5,484.8c-7-34.7-37.7-60.8-74.5-60.8c-11.7,0-22.8,2.7-32.7,7.4
			c-3,7.2-4.7,15.1-4.7,23.3c0,33.1,26.9,60,60,60C535.7,514.7,555.1,502.7,565.5,484.8z"/>
		<circle display="inline" fill="#FFFFFF" cx="529.5" cy="451.3" r="10"/>
	</g>
	<g id="Eyes_7" display="none">
		<circle display="inline" fill="#FFFFFF" cx="491" cy="500" r="76"/>
		<path display="inline" fill="#001C43" d="M416.5,484.8c7-34.7,37.7-60.8,74.5-60.8c11.7,0,22.8,2.7,32.7,7.4
			c3,7.2,4.7,15.1,4.7,23.3c0,33.1-26.9,60-60,60C446.3,514.7,426.9,502.7,416.5,484.8z"/>
		<circle display="inline" fill="#FFFFFF" cx="452.5" cy="451.3" r="10"/>
		<circle display="inline" fill="#FFFFFF" cx="309" cy="500" r="76"/>
		<path display="inline" fill="#001C43" d="M234.5,484.8c7-34.7,37.7-60.8,74.5-60.8c11.7,0,22.8,2.7,32.7,7.4
			c3,7.2,4.7,15.1,4.7,23.3c0,33.1-26.9,60-60,60C264.3,514.7,244.9,502.7,234.5,484.8z"/>
		<circle display="inline" fill="#FFFFFF" cx="270.5" cy="451.3" r="10"/>
	</g>
	<g id="Eyes_8" display="none">
		<circle display="inline" fill="#FFFFFF" cx="491" cy="500" r="76"/>
		<path display="inline" fill="#001C43" d="M416.5,515.2c7,34.7,37.7,60.8,74.5,60.8c11.7,0,22.8-2.7,32.7-7.4
			c3-7.2,4.7-15.1,4.7-23.3c0-33.1-26.9-60-60-60C446.3,485.3,426.9,497.3,416.5,515.2z"/>
		<circle display="inline" fill="#FFFFFF" cx="452.5" cy="548.7" r="10"/>
		<circle display="inline" fill="#FFFFFF" cx="309" cy="500" r="76"/>
		<path display="inline" fill="#001C43" d="M234.5,515.2c7,34.7,37.7,60.8,74.5,60.8c11.7,0,22.8-2.7,32.7-7.4
			c3-7.2,4.7-15.1,4.7-23.3c0-33.1-26.9-60-60-60C264.3,485.3,244.9,497.3,234.5,515.2z"/>
		<circle display="inline" fill="#FFFFFF" cx="270.5" cy="548.7" r="10"/>
	</g>
	<g id="Eyes_9" display="none">
		<circle display="inline" fill="#FFFFFF" cx="309" cy="500" r="76"/>
		<path display="inline" fill="#001C43" d="M383.5,515.2c-7,34.7-37.7,60.8-74.5,60.8c-11.7,0-22.8-2.7-32.7-7.4
			c-3-7.2-4.7-15.1-4.7-23.3c0-33.1,26.9-60,60-60C353.7,485.3,373.1,497.3,383.5,515.2z"/>
		<circle display="inline" fill="#FFFFFF" cx="347.5" cy="548.7" r="10"/>
		<circle display="inline" fill="#FFFFFF" cx="491" cy="500" r="76"/>
		<path display="inline" fill="#001C43" d="M565.5,515.2c-7,34.7-37.7,60.8-74.5,60.8c-11.7,0-22.8-2.7-32.7-7.4
			c-3-7.2-4.7-15.1-4.7-23.3c0-33.1,26.9-60,60-60C535.7,485.3,555.1,497.3,565.5,515.2z"/>
		<circle display="inline" fill="#FFFFFF" cx="529.5" cy="548.7" r="10"/>
	</g>
	<g id="Eyes_10" display="none">
		<circle display="inline" fill="#FFFFFF" cx="309" cy="500" r="76"/>
		<path display="inline" fill="#001C43" d="M383.5,515.2c-7,34.7-37.7,60.8-74.5,60.8c-11.7,0-22.8-2.7-32.7-7.4
			c-3-7.2-4.7-15.1-4.7-23.3c0-33.1,26.9-60,60-60C353.7,485.3,373.1,497.3,383.5,515.2z"/>
		<circle display="inline" fill="#FFFFFF" cx="347.5" cy="548.7" r="10"/>
		<circle display="inline" fill="#FFFFFF" cx="491" cy="500" r="76"/>
		<path display="inline" fill="#001C43" d="M416.5,515.2c7,34.7,37.7,60.8,74.5,60.8c11.7,0,22.8-2.7,32.7-7.4
			c3-7.2,4.7-15.1,4.7-23.3c0-33.1-26.9-60-60-60C446.3,485.3,426.9,497.3,416.5,515.2z"/>
		<circle display="inline" fill="#FFFFFF" cx="452.5" cy="548.7" r="10"/>
	</g>
	<g id="Eyes_11" display="none">
		<circle display="inline" fill="#FFFFFF" cx="309" cy="500" r="76"/>
		<path display="inline" fill="#001C43" d="M383.5,484.8c-7-34.7-37.7-60.8-74.5-60.8c-11.7,0-22.8,2.7-32.7,7.4
			c-3,7.2-4.7,15.1-4.7,23.3c0,33.1,26.9,60,60,60C353.7,514.7,373.1,502.7,383.5,484.8z"/>
		<circle display="inline" fill="#FFFFFF" cx="347.5" cy="451.3" r="10"/>
		<circle display="inline" fill="#FFFFFF" cx="491" cy="500" r="76"/>
		<path display="inline" fill="#001C43" d="M416.5,484.8c7-34.7,37.7-60.8,74.5-60.8c11.7,0,22.8,2.7,32.7,7.4
			c3,7.2,4.7,15.1,4.7,23.3c0,33.1-26.9,60-60,60C446.3,514.7,426.9,502.7,416.5,484.8z"/>
		<circle display="inline" fill="#FFFFFF" cx="452.5" cy="451.3" r="10"/>
	</g>
	<g id="Eyes_12" display="none">
		<path display="inline" fill="#FFFFFF" d="M398.2,532.9l-126.9-59.2c-16.3,35-1.2,76.7,33.9,93S381.9,567.9,398.2,532.9z"/>
		<path display="inline" fill="#001C43" d="M320,535c17.5,8.2,38.3,0.6,46.5-16.9l-63.4-29.6C294.9,506,302.5,526.8,320,535z"/>
		<path display="inline" fill="#FFFFFF" d="M528.6,473.7l-126.9,59.2c16.3,35,58,50.2,93,33.9S545,508.7,528.6,473.7z"/>
		<path display="inline" fill="#001C43" d="M480,535c17.5-8.2,25.1-29,16.9-46.5l-63.4,29.6C441.7,535.6,462.5,543.2,480,535z"/>
	</g>
</g>
<g id="Heads">
	<g id="Head_0" display="none">
		<path display="inline" fill="#29ABE2" d="M400,200c-110.5,0-200,89.5-200,200h400C600,289.5,510.5,200,400,200z"/>
	</g>
	<g id="Head_1" display="none">
		<path display="inline" fill="#29ABE2" d="M400,200c-110.5,0-200,89.5-200,200h400C600,289.5,510.5,200,400,200z"/>
		<g display="inline">
			<path fill="#2E3192" d="M213.5,252.8c0,0,0.3,0,0.8,0c0.5,0,1.3,0.1,2.3,0.1c1,0.1,2.1,0.1,3.5,0.3c1.3,0.1,2.8,0.3,4.4,0.5
				c0.8,0.1,1.6,0.2,2.5,0.3c0.8,0.1,1.7,0.3,2.6,0.4c1.8,0.3,3.6,0.6,5.5,1c1.8,0.4,3.8,0.8,5.7,1.3c1.9,0.5,3.7,1.1,5.6,1.6
				c1.8,0.6,4,0.8,6.2,0.9c1.1,0.1,2.1,0.2,3.1,0.4c0.9,0.2,1.8,0.5,2.5,1c1.4,1,2.1,2.6,2.6,4.4c0.5,1.8,0.7,3.8,0.7,5.9
				c0,2-0.2,4.2-0.6,6.3c-0.2,1-0.4,2.1-0.6,3.1c-0.3,1.1-0.5,2-0.8,2.9c-0.2,0.8-0.5,1.8-0.8,2.5c-0.1,0.4-0.2,0.7-0.3,1.1
				c-0.1,0.3-0.2,0.7-0.4,1c-0.4,1.2-0.7,1.8-0.7,1.8l-3.1,3.7c0,0-0.6,0.3-1.7,1c-0.3,0.1-0.6,0.4-0.9,0.5c-0.3,0.2-0.6,0.3-1,0.5
				c-0.7,0.4-1.6,0.8-2.4,1.2c-0.8,0.4-1.7,0.8-2.7,1.2c-0.9,0.4-1.9,0.8-2.9,1.1c-2,0.7-4.1,1.3-6.1,1.6c-2.1,0.4-4.1,0.5-5.9,0.3
				c-1.9-0.2-3.6-0.6-4.8-1.8c-0.6-0.6-1.1-1.4-1.4-2.2c-0.4-0.9-0.6-1.9-0.9-3c-0.5-2.1-1.1-4.2-1.9-6c-0.9-1.8-1.8-3.5-2.6-5.2
				c-0.8-1.8-1.5-3.6-2.2-5.4c-0.7-1.8-1.3-3.5-1.9-5.3c-0.3-0.8-0.6-1.7-0.8-2.5c-0.3-0.8-0.5-1.6-0.7-2.4
				c-0.5-1.5-0.9-2.9-1.2-4.2c-0.3-1.3-0.6-2.4-0.9-3.4c-0.2-0.9-0.4-1.7-0.5-2.2c-0.1-0.5-0.2-0.8-0.2-0.8L213.5,252.8z"/>
		</g>
		<g display="inline">
			<path fill="#2E3192" d="M302.3,198.6c0,0,0.2,0.1,0.7,0.2c0.4,0.1,1,0.3,1.8,0.5c0.4,0.1,0.8,0.2,1.3,0.4
				c0.4,0.1,0.9,0.3,1.4,0.5c1,0.3,2.2,0.7,3.3,1.1c0.6,0.2,1.2,0.4,1.8,0.7c0.6,0.2,1.2,0.5,1.9,0.8c1.3,0.5,2.6,1.1,4,1.7
				c1.3,0.6,2.7,1.2,3.9,1.9c1.3,0.7,2.5,1.4,3.7,2.2c1.2,0.7,2.9,1.3,4.6,1.7c0.8,0.3,1.7,0.5,2.3,0.8c0.7,0.3,1.2,0.7,1.4,1.2
				c0.6,0.9,0.3,2.2-0.3,3.6c-0.3,0.7-0.7,1.4-1.1,2.1c-0.5,0.8-0.9,1.4-1.6,2.2c-1.1,1.5-2.5,3-4,4.4c-0.8,0.7-1.5,1.4-2.2,2.1
				c-0.8,0.7-1.5,1.4-2.2,1.9c-0.6,0.6-1.4,1.2-2,1.7c-0.3,0.2-0.6,0.5-0.9,0.7c-0.3,0.2-0.6,0.4-0.8,0.6c-1,0.8-1.5,1.2-1.5,1.2
				l-4.6,2.1c0,0-0.7,0.1-1.9,0.4c-0.3,0.1-0.6,0.1-1,0.2c-0.3,0.1-0.7,0.1-1.1,0.2c-0.8,0.1-1.7,0.3-2.6,0.4
				c-0.9,0.1-1.9,0.3-2.9,0.4c-0.9,0.1-1.9,0.2-3,0.3c-2.1,0.2-4.1,0.2-6,0.1c-1,0-1.8-0.2-2.7-0.3c-0.8-0.1-1.6-0.3-2.3-0.6
				c-1.4-0.4-2.6-1.1-2.9-2.2c-0.2-0.5-0.1-1.2,0.1-1.9c0.2-0.7,0.6-1.5,0.9-2.3c0.8-1.6,1.5-3.2,1.7-4.6c0.3-1.4,0.5-2.8,0.8-4.2
				c0.3-1.4,0.7-2.8,1.1-4.2c0.5-1.4,0.9-2.8,1.3-4.1c0.2-0.7,0.5-1.3,0.7-1.9c0.2-0.6,0.5-1.2,0.7-1.8c0.4-1.2,0.9-2.3,1.3-3.2
				c0.2-0.5,0.4-0.9,0.6-1.4c0.2-0.4,0.4-0.8,0.6-1.2c0.3-0.7,0.6-1.3,0.8-1.7c0.2-0.4,0.3-0.6,0.3-0.6L302.3,198.6z"/>
		</g>
		<g display="inline">
			<path fill="#2E3192" d="M477.3,183.7c0,0,0.1,0.2,0.3,0.6c0.2,0.4,0.5,1,0.8,1.7c0.2,0.4,0.4,0.8,0.6,1.2
				c0.2,0.4,0.4,0.9,0.6,1.4c0.4,1,0.9,2.1,1.4,3.4c0.2,0.6,0.5,1.2,0.7,1.9c0.2,0.7,0.5,1.3,0.7,2c0.5,1.4,0.9,2.8,1.4,4.3
				c0.4,1.5,0.9,3,1.2,4.5c0.4,1.5,0.6,3,0.9,4.6c0.3,1.5,1,3.2,1.8,4.8c0.3,0.8,0.7,1.6,0.9,2.4c0.2,0.8,0.3,1.5,0.1,2.1
				c-0.2,1.3-1.3,2.3-2.6,3.1c-0.6,0.4-1.4,0.8-2.1,1.1c-0.8,0.3-1.6,0.7-2.5,0.9c-1.7,0.6-3.6,1-5.5,1.2c-1,0.1-1.9,0.3-2.8,0.4
				c-0.9,0.1-1.9,0.1-2.7,0.2c-0.8,0.1-1.7,0.1-2.4,0.1c-0.4,0-0.7,0-1,0c-0.3,0-0.7,0-0.9,0c-1.2,0-1.8,0-1.8,0l-4.3-1.3
				c0,0-0.5-0.3-1.5-1c-0.2-0.2-0.5-0.3-0.8-0.5c-0.3-0.2-0.5-0.4-0.8-0.6c-0.6-0.4-1.3-0.9-1.9-1.4c-0.6-0.5-1.4-1.1-2.1-1.7
				c-0.6-0.6-1.3-1.2-2.1-1.9c-1.4-1.3-2.8-2.7-3.9-4.1c-0.6-0.7-1-1.4-1.5-2.2c-0.4-0.7-0.8-1.4-1.1-2.1c-0.6-1.4-0.9-2.8-0.4-4
				c0.3-0.6,0.7-1.1,1.3-1.7c0.6-0.5,1.4-1,2.1-1.4c1.6-0.9,3.1-1.9,4.2-3c1.1-1.1,2.2-2.2,3.3-3.3c1.1-1.1,2.4-2.1,3.5-3.1
				c1.3-1,2.4-1.9,3.6-2.8c0.6-0.4,1.2-0.9,1.7-1.3c0.6-0.4,1.1-0.8,1.7-1.2c1.1-0.8,2.1-1.4,3-2c0.5-0.3,0.9-0.6,1.3-0.8
				c0.4-0.2,0.8-0.5,1.1-0.7c0.7-0.4,1.2-0.7,1.6-1c0.4-0.2,0.6-0.3,0.6-0.3L477.3,183.7z"/>
		</g>
		<g display="inline">
			<path fill="#2E3192" d="M578.4,271c0,0,0,0.2,0,0.6c0,0.4,0,1,0,1.8c0,0.4,0,0.8,0,1.2c0,0.4-0.1,0.9-0.1,1.4
				c-0.1,1-0.1,2.2-0.2,3.3c-0.1,1.2-0.3,2.4-0.4,3.7c-0.1,1.3-0.4,2.6-0.6,4c-0.2,1.3-0.5,2.7-0.8,4c-0.3,1.3-0.7,2.5-1.1,3.8
				c-0.2,0.7-0.3,1.3-0.4,2.1c-0.1,0.8-0.1,1.6-0.1,2.5c0,0.8-0.1,1.6-0.2,2.3c-0.1,0.7-0.4,1.2-0.7,1.5c-0.7,0.7-1.9,0.6-3.3,0.2
				c-0.7-0.2-1.5-0.5-2.2-0.8c-0.8-0.4-1.5-0.7-2.4-1.2c-0.4-0.2-0.8-0.4-1.2-0.7c-0.4-0.3-0.9-0.6-1.3-0.8
				c-0.4-0.3-0.8-0.5-1.2-0.8c-0.2-0.1-0.4-0.3-0.6-0.4c-0.2-0.2-0.4-0.3-0.6-0.5c-0.8-0.6-1.6-1.2-2.4-1.8
				c-0.8-0.7-1.6-1.3-2.3-1.8c-0.7-0.5-1.4-1.2-2-1.7c-0.3-0.3-0.6-0.5-0.8-0.7c-0.3-0.3-0.5-0.5-0.8-0.7c-0.9-0.9-1.4-1.3-1.4-1.3
				l-2.9-4.1c0,0-0.3-0.6-0.8-1.7c-0.1-0.3-0.3-0.6-0.4-0.9c-0.1-0.3-0.3-0.6-0.4-1c-0.3-0.7-0.7-1.6-1-2.4c-0.3-0.8-0.7-1.7-1-2.7
				c-0.3-0.9-0.6-1.8-0.9-2.8c-0.1-0.3-0.2-0.5-0.3-0.8c-0.1-0.2-0.1-0.4-0.2-0.7c-0.1-0.5-0.2-0.9-0.4-1.4s-0.3-1-0.4-1.5
				c-0.1-0.5-0.2-0.9-0.3-1.4c-0.2-1-0.3-1.7-0.4-2.6c0-0.7-0.1-1.6-0.1-2.3c0.1-1.4,0.4-2.6,1.3-3.1c0.4-0.2,1-0.3,1.7-0.2
				c0.7,0.1,1.5,0.3,2.3,0.5c0.8,0.2,1.6,0.5,2.4,0.7c0.8,0.2,1.5,0.3,2.2,0.3c1.3,0.1,2.6,0.1,4,0.2c1.3,0.1,2.7,0.3,4,0.5
				c1.4,0.3,2.7,0.4,4,0.7c1.3,0.3,2.5,0.5,3.7,0.8c1.1,0.2,2.3,0.6,3.2,0.8c0.5,0.1,0.9,0.2,1.4,0.4c0.4,0.1,0.8,0.3,1.2,0.4
				c0.7,0.2,1.3,0.4,1.7,0.5c0.4,0.1,0.6,0.2,0.6,0.2L578.4,271z"/>
		</g>
	</g>
	<g id="Head_2" display="none">
		<path display="inline" fill="#29ABE2" d="M400,200c-110.5,0-200,89.5-200,200h400C600,289.5,510.5,200,400,200z"/>
		<g display="inline">
			<path fill="#29ABE2" d="M347.6,216.3c0,0,0-0.4,0-1.1c0-0.2,0-0.4,0-0.6c0,0,0,0,0.1-0.1c0,0,0.1-0.1,0.1-0.1
				c0-0.1,0-0.3,0.1-0.5c0.2-1.5,0.2-4.6,0-10.4c-0.1-2.9-0.2-6.5-0.3-10.9c0-4.4,0.1-9.6,0.6-15.6c0.6-6,1.6-12.7,3.5-19.7
				c1.9-7,4.7-14.4,8.3-21.3c0.9-1.7,1.9-3.4,2.9-5.1l0.2-0.3l0.1-0.2c-0.7,1.2,1-1.8,0.9-1.5l0.3-0.3l0.1-0.2l0.1-0.1
				c0-0.1,0,0,0.1-0.1c0.4-0.7,0.9-1.4,1.4-2.1c0.5-0.7,1-1.4,1.4-2.1l0.3-0.4l0.2-0.3l0.5-0.6c0.7-0.8,1.4-1.6,1.9-2.3l0.9-1
				c0.3-0.3,0.6-0.7,0.9-1l1.8-1.7l1.7-1.5c0.6-0.5,1-0.9,1.6-1.3c2-1.7,3.9-3,5.6-4.1c1.7-1.1,3.3-2.1,4.7-2.9
				c1.5-0.9,2.9-1.6,4.2-2.3c2.6-1.3,5.1-2.5,7.3-3.5c3.9-1.8,7.9-3.6,12.1-5.4c3.6-1.6,6.7-3.2,9.4-4.7c2.7-1.5,4.9-2.9,6.8-4.3
				c1.9-1.5,3.5-3,4.9-5.2c0.7-1.1,1.3-2.3,1.8-3.8c0.5-1.4,1-3.1,1.2-4.8c0.6-2.9,0.7-6.1,0.2-9.4c-0.5-3.3-1.6-6.6-3.3-9.9
				c-1.7-3.3-4.1-6.5-7-9.5c-5.8-5.9-13.6-10.4-22-12.8c-8.4-2.4-17.3-2.7-25.6-0.7c-4.1,1-8.1,2.5-11.8,4.5c-1.8,1-3.7,2.1-5.2,3.3
				c-1.4,1.1-2.7,2.4-3.8,3.8c-2.3,2.8-4,6.1-5.2,9.5c-1.2,3.4-1.9,6.9-2.3,10.2c-0.7,6.7-0.2,12.8,0.7,17.7
				c0.9,4.9,2.2,8.7,3.4,11.1c0.6,1.2,1.1,2.1,1.5,2.7c0.4,0.6,0.7,0.9,0.7,0.9s-0.3-0.2-0.8-0.7c-0.5-0.5-1.2-1.3-2.1-2.4
				c-1.7-2.2-3.8-5.8-5.7-10.7c-1.9-4.9-3.7-11.1-4.4-18.6c-0.3-3.8-0.3-7.9,0.3-12.2c0.6-4.4,1.9-9,4.2-13.6
				c1.2-2.3,2.6-4.5,4.4-6.7c0.9-1,1.6-2,2.4-3c0.8-1,1.7-2,2.6-3c3.7-3.9,8.1-7.5,13.1-10.7C379.5,6.7,392,2.6,405.5,2
				c13.4-0.6,27.7,1.9,41.2,8.4c6.8,3.2,13.3,7.5,19.4,12.8c6,5.3,11.5,11.8,15.8,19.1c4.4,7.4,7.6,15.5,9.6,24.1
				c0.9,4.1,1.7,8.2,2.1,12.6c0.4,4.3,0.5,8.8,0.2,13.4c-0.6,9.1-2.8,18.4-6.3,26.9c-3.5,8.4-8,16-12.8,22.4
				c-4.8,6.5-9.8,12-14.5,16.8c-4.7,4.8-9.2,9-13,12.6c-1.9,1.8-3.5,3.5-4.9,4.9c-0.6,0.7-1.2,1.4-1.7,2c-0.5,0.6-0.8,1.1-0.9,1.5
				c-0.2,0.4,0,0.6,0.3,0.5c0.1,0,0.2,0,0.3-0.1c0.2-0.1,0.3-0.2,0.4-0.3c0.2-0.1,0.4-0.3,0.6-0.5l0.4-0.3l0.4-0.4
				c0.2-0.2,0.6-0.6,0.9-0.9l0.2-0.3l0.1-0.1l0.2-0.2c0.3-0.4,0.7-0.9,1-1.4c0.3-0.5,0.6-0.9,0.9-1.4c0.1-0.1,0,0,0,0l0,0.1
				l-0.1,0.2l-0.1,0.4c-0.2,0.4,1.8-2.6,0.8-1.4v0v0.1c0,0.3,0,0.6,0,0.9c0,1.1,0.3,1.8,0.6,2.5c0.3,0.7,0.6,1.6,1,2.7
				c0.4,1.1,0.8,2.6,1.3,4.3c0.6,2.1,1.1,4.1,1.6,5.9c1.1,4.3,2.3,9.1,3,13.1c0.1,0.5,0.2,1,0.2,1.4c0.1,0.6,0.2,1.1,0.2,1.6
				c0.1,0.5,0.1,0.9,0.2,1.4c0,0.2,0.1,0.4,0.1,0.6c0.1,0.7,0.2,1.1,0.2,1.1L347.6,216.3z"/>
		</g>
		<circle fill="#2E3192" cx="321" cy="101" r="30"/>
	</g>
	<g id="Head_3" display="none">
		<path fill="#FF7BAC" d="M400,200c-110.5,0-200,89.5-200,200h400C600,289.5,510.5,200,400,200z"/>
		<path display="inline" fill="#FF7BAC" d="M400,200c-110.5,0-200,89.5-200,200h400C600,289.5,510.5,200,400,200z"/>
		<g id="Calque_29" display="inline">
			
				<line opacity="0.2" fill="none" stroke="#000000" stroke-width="8" stroke-miterlimit="10" x1="400" y1="208" x2="400" y2="400"/>
			<g opacity="0.2">
				<g>
					<g>
						<path d="M350.7,297c-0.1-0.7-1.2,1.8-1.7,2.6c-1.4,2-3.6,3.7-5.6,5c-6.5,4.3-13.9,4.7-21.4,4.8c-6.4,0.1-13.1,0.7-17.4-5
							c-3.5-4.7-4.5-9.8-1.3-14.9c2.4-3.8,5.7-6.9,8-10.8c2.7-4.6,3.1-9.7,2.2-14.8c-1-5.8-5.5-10.2-9.7-14
							c-5.1-4.6-11-8.8-17.5-11.2c-4.8-1.8-6.9,5.9-2.1,7.7c7,2.7,13.5,8.1,18.5,13.6c4.1,4.4,4.3,10.3,1.4,15.4
							c-2.5,4.3-6.4,7.7-8.7,12.2c-3,5.7-2.1,11.6,0.4,17.3c6.7,14.9,25.4,14.1,39.1,11.7c8.9-1.5,25.8-10.2,23.7-21.6
							C357.5,289.8,349.8,292,350.7,297L350.7,297z"/>
					</g>
				</g>
				<g>
					<g>
						<path d="M367.5,345.2c-0.6-25.5-30.7-24-47.4-15.2c-23,12-18.5,44.7-18.8,66c-0.1,5.2,7.9,5.2,8,0
							c0.2-17.8-3.9-41.9,10.1-55.7c9.7-9.7,39.6-14.7,40.1,4.9C359.6,350.4,367.6,350.4,367.5,345.2L367.5,345.2z"/>
					</g>
				</g>
				<g>
					<g>
						<path d="M242.6,287.6c12.7,6.1,23.6,15.2,31.6,26.9c4,5.9,7,12.4,9.1,19.2c2,6.6,3.7,15.3-1.5,20.9c-3.5,3.8,2.1,9.5,5.7,5.7
							c11.4-12.3,3.7-32.1-3.2-44.7c-8.4-15.2-22.1-27.4-37.7-34.9C242.1,278.5,238,285.4,242.6,287.6L242.6,287.6z"/>
					</g>
				</g>
				<g>
					<g>
						<path d="M258.1,343.6c-0.1-10.2-5.7-18.5-16.4-19.1c-8.4-0.5-14,5.5-17,12.7c-7.4,18.1-5.8,39.8-5.6,58.9c0.1,5.2,8.1,5.2,8,0
							c-0.2-15.4-0.7-31,2.2-46.2c1-5.4,2.6-13.5,7.8-16.5c2.2-1.3,5.2-1,7.6-0.3c4.4,1.4,5.3,6.6,5.4,10.5
							C250.1,348.7,258.1,348.7,258.1,343.6L258.1,343.6z"/>
					</g>
				</g>
				<g>
					<g>
						<path d="M281.4,271.6c-3.9,0.5-8-3.8-10.5-6.2c-2.2-2.1-4.4-5.6-7.4-6.6c-4.9-1.5-7,6.2-2.1,7.7c-1.8-0.6-1.1-0.7-0.2,0.3
							c0.6,0.6,1.2,1.3,1.8,1.9c1.8,1.9,3.7,3.7,5.7,5.4c4.4,3.6,9.2,6,14.9,5.2C288.6,278.6,286.4,270.9,281.4,271.6L281.4,271.6z"
							/>
					</g>
				</g>
				<g>
					<g>
						<path d="M468.3,222.8c2,4.5,2.4,8.8-0.4,13c-3.5,5.2-10.9,7.8-16.7,9.3c-16.1,4.3-40.2-3.1-36.3-23.8c0.5-2.5-1.1-5.1-3.9-5.1
							c-7.5,0-15.1,0-22.6,0c-2.8,0-4.3,2.5-3.9,5.1c3.9,20.5-19.3,27.6-35.3,24.1c-11.1-2.5-23.8-9.8-18.1-22.5
							c2.1-4.7-4.8-8.7-6.9-4c-3.1,7-4.1,14.4,0.4,21.1c4.9,7.3,14.2,11.2,22.4,13.2c11.4,2.8,23.3,1.4,33.4-4.7
							c9.9-6,13.8-18.3,11.7-29.2c-1.3,1.7-2.6,3.4-3.9,5.1c7.5,0,15.1,0,22.6,0c-1.3-1.7-2.6-3.4-3.9-5.1
							c-2,10.5,1.5,22.1,10.5,28.4c9.9,6.9,22,8.1,33.6,5.8c8.4-1.7,17.6-5.8,22.8-12.6c5.1-6.7,4.3-14.6,1.1-21.9
							C473.1,214,466.2,218.1,468.3,222.8L468.3,222.8z"/>
					</g>
				</g>
				<g>
					<g>
						<path d="M468.3,280.8c-6.4-15.5-23.2-16.9-38-14.3c-6.8,1.2-14.7,4.9-17.7,11.5c-2.5,5.3-4.4,11.6-5.3,17.3
							c1.3-1,2.6-2,3.9-2.9c-7.5,0-15.1,0-22.6,0c1.3,1,2.6,2,3.9,2.9c-0.9-5.8-2.8-12-5.3-17.3c-3.1-6.7-10.9-10-17.7-11.5
							c-14.6-3-31.7-0.8-38,14.3c-2,4.8,5.8,6.8,7.7,2.1c4.8-11.5,20.9-10.6,30.9-8.1c10.5,2.6,13.2,13,14.6,22.6
							c0.3,1.7,2.2,2.9,3.9,2.9c7.5,0,15.1,0,22.6,0c1.6,0,3.6-1.2,3.9-2.9c0.7-4.4,2.2-8.8,3.6-13c1.8-5.4,5.7-8,11-9.6
							c9.9-2.9,26.3-3.1,30.9,8.1C462.5,287.6,470.2,285.5,468.3,280.8L468.3,280.8z"/>
					</g>
				</g>
				<g>
					<g>
						<path d="M441.2,294.9c-2,11.2,13.8,19.2,22.3,21.3c7.3,1.9,16.3,1.8,23.8,0.9c7.8-0.9,13.2-5.4,16.8-12.3
							c2.7-5.2,3.3-11.2,0.8-16.5c-2.1-4.6-5.9-8-8.6-12.2c-8.6-12.9,8.6-25.6,19.4-29.7c4.8-1.8,2.7-9.6-2.1-7.7
							c-6.1,2.3-11.5,6.2-16.5,10.3c-4.4,3.7-8.8,8.1-10.5,13.7c-3.3,11.4,4.1,18.2,9.9,26.8c3.1,4.7,2.1,9-0.6,13.7
							c-3.7,6.4-10.4,6.3-16.8,6.2c-7.7-0.1-14.9-0.3-21.8-4.2c-2.4-1.3-4.4-3.1-6.2-5.1c-0.6-0.7-1.1-1.5-1.6-2.3
							c-0.3-0.4-0.3-1.7-0.5-0.7C449.8,292,442.1,289.8,441.2,294.9L441.2,294.9z"/>
					</g>
				</g>
				<g>
					<g>
						<path d="M452.4,354.6c-2.6,2.2-7.1,2.8-10.3,3.4c-5.1,1-10.2,0.7-14.9-1.8c-9-4.8-11-17.1-12.3-26.2c-0.2-1.7-2.3-2.9-3.9-2.9
							c-7.5,0-15.1,0-22.6,0c-1.6,0-3.6,1.2-3.9,2.9c-1.3,9.1-3.1,19.9-11.2,25.6c-4.3,3-9.3,3.2-14.3,2.7c-3.6-0.3-9.1-1.2-12-3.6
							c-3.9-3.3-9.6,2.3-5.7,5.7c7.9,6.7,23.2,8.2,32.5,4c12.7-5.8,16.6-19.5,18.3-32.2c-1.3,1-2.6,2-3.9,2.9c7.5,0,15.1,0,22.6,0
							c-1.3-1-2.6-2-3.9-2.9c1.7,12.3,5.3,25.4,17.1,31.6c9.3,5,25.5,3.5,33.7-3.4C462,356.9,456.3,351.3,452.4,354.6L452.4,354.6z"
							/>
					</g>
				</g>
				<g>
					<g>
						<path d="M440.1,345.2c0.5-19.6,29.1-14.2,39.3-5.7c7.9,6.6,9.9,18.1,10.7,27.8c0.8,9.6,0.1,19.2,0.2,28.7c0.1,5.2,8.1,5.2,8,0
							c-0.3-21.9,3.9-51.8-17.8-65.5c-16.4-10.3-47.9-10.6-48.4,14.7C432,350.4,440,350.4,440.1,345.2L440.1,345.2z"/>
					</g>
				</g>
				<g>
					<g>
						<path d="M552.9,280.7c-15.3,7.4-28.1,19.1-36.9,33.6c-7.6,12.6-15.5,33.5-3.9,46c3.5,3.8,9.2-1.9,5.7-5.7
							c-9.3-10,0.9-29.5,6.8-38.8c7.8-12.3,19.4-21.9,32.5-28.2C561.6,285.4,557.5,278.5,552.9,280.7L552.9,280.7z"/>
					</g>
				</g>
				<g>
					<g>
						<path d="M549.5,343.6c0.1-7.6,4.8-13.1,12.6-10.4c5.3,1.8,6.9,11.1,7.9,15.6c3.4,15.4,2.6,31.6,2.4,47.2c-0.1,5.2,7.9,5.2,8,0
							c0.2-19,1.7-40-5.3-58.1c-2.9-7.6-8-13-16.5-13.5c-11.1-0.6-17.1,9.2-17.2,19.1C541.5,348.7,549.5,348.7,549.5,343.6
							L549.5,343.6z"/>
					</g>
				</g>
				<g>
					<g>
						<path d="M516.1,279.3c5.4,0.7,10-1.3,14.2-4.7c2.1-1.7,4-3.5,5.9-5.4c0.6-0.7,1.3-1.4,1.9-2c1-1,2.3-1.3,0.2-0.7
							c4.9-1.5,2.8-9.2-2.1-7.7c-2.8,0.9-4.9,4-6.8,6c-2.6,2.6-7,7.4-11.1,6.9C513.2,270.9,511,278.6,516.1,279.3L516.1,279.3z"/>
					</g>
				</g>
			</g>
			<path opacity="0.2" fill="none" stroke="#000000" stroke-width="8" stroke-miterlimit="10" d="M400,204
				c-108.2,0-196,83.3-196,192h392C596,287.3,508.2,204,400,204z"/>
		</g>
		<path display="inline" fill="#29ABE2" d="M563.8,375.4c-14.3-15.6-21.3-34.4-26.1-55.8c-13.8,14.8-17.8,32.8-18,52.9
			c-21.4-6.5-29.7-16-31.3-42.5c-9.7,6.7-17,14.5-22.9,35.5c-15.7-14.2-18.2-19.6-25.5-39.5c-9.7,19.8-13.2,33.3-34,48
			c-10.5-17-21.3-34.7-42.4-43c7.9,28.7-13,45.7-13,45.7s-19.1-17-21.4-50.8c-8.6,12.6-17.9,25.3-19.1,43
			c-15.9-9.5-27.9-23.6-25-41.9c-13.3,11.8-21.4,29.3-21.6,47.1c-20.5-12.2-25.9-31-30.3-50.2C228,329,222.5,344,222.8,357
			c-12.8-13.6-22.5-16.8-40.9-19.9c13.4,9.1,17.5,26.6,18.1,42.9v20h400v-20c-0.3-17.5,1.9-35.7,15-47.4
			C589.3,328.7,571,347,563.8,375.4z"/>
	</g>
	<g id="Head_4" display="none">
		<path display="inline" fill="#E6E6E6" d="M400,200c-110.5,0-200,89.5-200,200h400C600,289.5,510.5,200,400,200z"/>
		<path display="inline" fill="#29ABE2" d="M545,345c-21.3,0-39.7,12.1-48.8,29.7c-6.3-4.2-14-6.7-22.2-6.7
			c-14.6,0-27.4,7.8-34.4,19.6c-9.1-8.4-21.3-13.6-34.6-13.6c-6.2,0-12.2,1.1-17.8,3.2c-3.6-18.3-19.8-32.2-39.2-32.2
			c-10.8,0-20.7,4.3-27.9,11.3C307.6,341.5,288.9,332,268,332c-37.6,0-68,30.4-68,68h400C600,369.6,575.4,345,545,345z"/>
		<circle display="inline" fill="#29ABE2" cx="316" cy="281" r="30"/>
		<circle display="inline" fill="#29ABE2" cx="491" cy="304" r="34"/>
		<circle display="inline" fill="#29ABE2" cx="409" cy="237" r="24"/>
		<circle display="inline" fill="#29ABE2" cx="400" cy="317.5" r="17.5"/>
	</g>
	<g id="Head_5" display="none">
		<path display="inline" fill="#29ABE2" d="M585.5,349.4c5.6-18.7,8.5-38.2,8.5-57.7c-8.8,15.5-21.3,28.8-36.2,38.5
			c2.2-30.3,9.2-63.3-19.3-86.8c1,23.7-11.6,47.6-31.8,60.1c-2.6-30.7-5.8-58.1-19.7-85.6c-0.8,24.5-18.3,45.7-37.6,60.8
			c-1.7-25.2-6.4-49.2-28.8-70.1c-4.3,17.6-7.6,32.9-21.8,50.3c-19.3-12.1-34.9-30.1-44-51c-0.9,22.4-2.6,44.7-4.9,67
			c-23.3-8.3-40.5-31.5-41.6-56.2c-17.3,21.4-15.9,51.8-13.7,79.1c-10.7-0.6-41.4-41-40.2-51.7c-21.5,21.8-13.8,49-5.5,77.8
			c-7.3-18.8-45.8-40.1-60.3-37.6c18.5,23.5,28,42,25.5,69.9c-12.1-14.6-32.6-21.6-51.1-17.5C193,353.5,200.6,385,200,400h400
			c0-35,7-49.5,38-55.5C620.5,329.5,597.1,341.1,585.5,349.4z"/>
	</g>
	<g id="Head_6" display="none">
		<path display="inline" fill="#29ABE2" d="M400,200c-110.5,0-200,89.5-200,200h400C600,289.5,510.5,200,400,200z"/>
		<g display="inline">
			<path fill="#29ABE2" d="M201.1,392.2c0,0-0.4-0.5-1.3-1.4c-0.2-0.2-0.4-0.5-0.7-0.8l-0.2-0.2c0-0.1,0-0.1-0.1-0.1
				c0-0.1-0.1-0.1-0.1-0.2c-0.1-0.1-0.2-0.3-0.3-0.5c0-0.1-0.1-0.2-0.2-0.3c-0.1-0.1-0.2-0.2-0.3-0.4c-0.9-1-2-2.2-3.3-3.4
				c-1.4-1.2-3.1-2.5-5.1-3.7c-2-1.2-4.5-2.2-7.3-3c-2.8-0.8-6.1-1.3-9.5-1.3c-3.4-0.1-7.2,0.3-10.6,1.2c-1.7,0.4-3.3,1-4.6,1.5
				l-0.2,0.1l-0.1,0l0,0c-0.1,0.1,0.2-0.2,0.1-0.1l-0.1,0.1l-0.8,0.5c-0.3,0.2-0.5,0.3-0.6,0.4c-0.2,0.1-0.4,0.2-0.6,0.3
				c-0.9,0.6-1.8,1.2-2.8,1.9c-1.9,1.4-4,3.1-6.4,4.8c-2.3,1.8-4.9,3.6-7.7,5.2c-5.5,3.1-11.3,5.2-17,6.2c-5.7,1-11.2,1-16.2,0.3
				c-5-0.7-9.5-2.1-13.3-3.8c-7.7-3.4-13.1-7.9-16-11.7c-1.5-1.9-2.3-3.6-2.6-4.9c-0.1-0.6-0.2-1.1-0.2-1.4c0-0.3,0-0.5,0-0.5
				s0,0.2,0.1,0.5c0.1,0.3,0.2,0.7,0.5,1.2c0.6,1,1.8,2.3,3.6,3.5c3.5,2.5,9.5,4.9,16.6,5.6c3.6,0.4,7.4,0.3,11.3-0.3
				c3.9-0.6,7.7-1.9,11.2-3.8c3.5-1.9,6.7-4.4,9.4-7.4c2.4-2.8,4.7-6.7,7.9-11.3c0.8-1.1,1.7-2.4,2.6-3.6l1.6-1.9l0.6-0.8l1.1-1.1
				c2.7-2.7,5.4-4.9,8.1-6.8c5.5-3.9,11.3-6.7,17.3-8.9c6-2.1,12.1-3.5,18.1-4.1c6-0.6,11.9-0.5,17.3,0.3c5.4,0.7,10.4,2,14.7,3.4
				c4.3,1.5,7.9,3.1,10.8,4.6c0.4,0.2,0.7,0.4,1.1,0.5c0.4,0.2,0.7,0.4,1.1,0.6c0.7,0.4,1.4,0.8,2,1.2c0.3,0.2,0.6,0.4,0.9,0.5
				c0.1,0.1,0.3,0.2,0.4,0.2c0.1,0,0.2,0.1,0.3,0.1c0.3,0.2,0.6,0.4,0.9,0.5c1.1,0.6,1.6,0.9,1.6,0.9L201.1,392.2z"/>
		</g>
		<g display="inline">
			<path fill="#29ABE2" d="M235.8,316.9c0,0-0.2-0.1-0.5-0.2c-0.4-0.1-0.6-0.3-1.6-0.7c-0.4-0.2-0.9-0.4-1.5-0.6
				c-0.5-0.2-1-0.4-1.6-0.7c-1.1-0.5-2.4-1.1-3.8-1.8c-5.5-2.7-13-6.9-21.4-13.4c-4.2-3.2-8.5-7.1-12.8-11.8
				c-4.3-4.7-8.6-10.4-11.9-17.4l-0.3-0.7l-0.1-0.2c0.1,0.1-0.6-1.1-0.3-0.6l0-0.1l-0.1-0.2l-0.2-0.5l-0.3-0.7
				c-0.3-0.8-0.6-1.6-0.9-2.3l-0.5-1.7c-0.6-2.2-1-4.2-1.3-6c-0.5-3.5-0.7-6.5-0.9-9.1c-0.4-5.3-0.8-9.4-1.7-12.5
				c-0.9-3.1-2-5.3-4.3-7.5l-0.2-0.2l0,0c0.3,0.2,0.1,0,0.1,0.1l-0.1-0.1l-0.2-0.2l-0.4-0.4l-0.2-0.2c-0.1-0.1-0.1-0.1-0.1-0.1
				l-0.4-0.5l-0.5-0.5c-0.7-0.7-1.5-1.4-2.4-2.1c-1.7-1.3-3.5-2.6-5.5-3.7c-3.9-2.2-8.2-3.9-12.4-5.2c-4.2-1.3-8.5-2.1-12.4-2.5
				c-7.9-0.9-14.8-0.2-19.3,1.3c-2.3,0.7-4,1.6-5.1,2.3c-0.5,0.4-1,0.7-1.2,0.9c-0.3,0.2-0.4,0.3-0.4,0.3s0.1-0.2,0.2-0.5
				c0.2-0.3,0.4-0.8,0.8-1.3c0.8-1.1,2.1-2.7,4.2-4.4c4.1-3.4,10.8-7,19.7-9.5c4.4-1.3,9.4-2.3,14.7-2.8c5.4-0.5,11.2-0.6,17.4,0.1
				c3.1,0.4,6.3,1,9.6,1.9c1.6,0.4,3.3,1,4.9,1.6l1.2,0.5l1.4,0.6l0.3,0.1l0.2,0.1l0.5,0.2l0.2,0.1l0.1,0c0.1,0.1-0.1-0.1,0.2,0.1
				l0.1,0l0.6,0.4c3.4,2,6.8,4.6,9.7,7.7c2.9,3.1,5.4,6.6,7.3,10.1c1.9,3.6,3.3,7.1,4.5,10.5c1.1,3.3,2,6.5,2.7,9.3
				c0.7,2.8,1.4,5.3,2.1,7c0.3,0.8,0.6,1.5,0.9,1.8c0.1,0.1,0.1,0.1,0.2,0.2c0-0.1-0.1-0.3-0.1-0.5l0-0.1c0,0,0-0.1,0,0l0.1,0.2
				l0.3,0.4l0.1,0.2l0,0.1c0.3,0.5-0.4-0.7-0.3-0.5l0,0l0.2,0.2c2,2.1,4.5,4.2,7.3,6c2.8,1.8,5.8,3.4,8.8,4.7
				c5.9,2.6,11.4,4.1,15,4.8c0.9,0.2,1.7,0.3,2.4,0.5c0.3,0.1,0.7,0.1,1,0.2c0.3,0,0.4,0,0.6,0.1c0.3,0,0.9,0.1,1.2,0.2
				c0.3,0.1,0.5,0.1,0.5,0.1L235.8,316.9z"/>
		</g>
		<g display="inline">
			<path fill="#29ABE2" d="M270.2,248.1l0.3-0.5l0.2-0.3c0-0.1,0,0,0,0l0,0.1c0,0.1,0,0.3,0,0.4l0,0.1c0,0,0,0,0,0l0.1,0
				c0.1,0,0.2,0,0.3-0.1c0.1,0,0.2-0.1,0.3-0.2c0.4-0.4,0.9-0.9,1.3-1.6c0.9-1.4,1.6-3.1,2.3-4.9c1.3-3.6,2.1-7.7,2.4-11.9
				c0.3-4.2-0.1-8.6-1.1-13l-0.2-0.8l-0.1-0.4l-0.1-0.2l0-0.1l0-0.1c-0.1-0.1,0.5,0.7,0.2,0.3l0,0l-0.6-1l-0.1-0.1c0,0,0,0,0,0l0,0
				l0,0c0.1,0-0.1-0.2-0.1-0.3c-0.1-0.1-0.1-0.3-0.2-0.4c-0.1-0.3-0.3-0.6-0.5-0.9c-0.8-1.2-1.9-2.5-3.4-3.9
				c-1.5-1.4-3.4-2.8-5.5-4.2c-2.1-1.4-4.5-2.8-7-4.2c-5.1-2.8-10.8-5.7-16.8-9.2c-3-1.8-6.1-3.7-9.2-6c-3.1-2.3-6.2-4.9-9-8
				c-2.9-3.1-5.5-6.7-7.4-10.7c-2-4-3.3-8.2-3.9-12.3l-0.3-1.8l0-0.1c0.1-2,0.4-3.5,0.6-5.1c0.3-1.6,0.6-3.1,0.9-4.6
				c0.7-3,1.5-5.9,2.4-8.9c1.9-5.8,4.3-11.4,7.6-16.7c1.6-2.6,3.5-5.1,5.6-7.4c2.1-2.3,4.5-4.3,7.1-5.9c2.6-1.6,5.4-2.8,8.2-3.5
				c2.8-0.7,5.7-0.9,8.4-0.8c-2.6,0.9-5.1,2-7.2,3.5c-2.2,1.5-4,3.3-5.5,5.3c-3,4-4.7,8.6-5.6,13.4c-0.9,4.8-1.2,9.8-0.9,14.7
				c0.1,2.5,0.4,4.9,0.7,7.4c0.2,1.2,0.4,2.4,0.6,3.6c0.2,1.1,0.5,2.3,0.8,3.1l-0.3-1.9c0.8,1.9,1.7,3.4,2.9,4.7
				c1.1,1.3,2.5,2.5,4.1,3.6c3.2,2.2,7.6,4.1,12.7,5.8c5.1,1.7,10.9,3.3,17.1,5.2c3.1,1,6.4,2.1,9.7,3.4c3.4,1.3,6.9,2.9,10.5,4.9
				c3.6,2,7.3,4.5,10.9,7.6c0.9,0.8,1.8,1.6,2.6,2.5c0.4,0.4,0.9,0.9,1.3,1.3c0.4,0.5,0.8,0.9,1.3,1.5l1.3,1.6l0.7,0.9l0,0
				c-0.2-0.3,0.3,0.5,0.3,0.4l0.1,0.1l0.1,0.1l0.3,0.3l0.5,0.6l1,1.1c5.4,6.1,10.1,13,13.8,20.6c1.9,3.8,3.5,7.7,4.9,11.8
				c1.4,4.1,2.6,8.3,3.4,12.6c0.9,4.3,1.5,8.8,1.7,13.6c0.1,2.4,0.1,4.9,0,7.5c0,0.7-0.1,1.3-0.1,2c-0.1,0.7-0.1,1.4-0.2,2.2
				l-0.1,0.6l0,0.3l-0.1,0.4l-0.3,1.5l-0.1,0.4c0,0.1-0.1,0.3-0.1,0.3l0,0.3l0,0.6L270.2,248.1z"/>
		</g>
		<g display="inline">
			<path fill="#29ABE2" d="M364.1,204.1c0,0,0.1-0.2,0.3-0.5c0,0,0-0.1,0.1-0.1l0-0.1l0,0l0,0.1c0,0.2-0.1,0.3-0.1,0.5
				c0,0.2-0.1,0.4-0.1,0.6c0,0.1,0,0.2,0,0.3c0,0.9,0.1,2.5,0.7,3.4c0.3,0.4,0.5,0.6,0.8,0.4c0.2-0.2,0.4-0.8,0.3-1.8
				c0-1.9-0.9-5.3-2.3-9.9c-1.4-4.6-3.5-10.4-5.1-18.1c-0.8-3.9-1.4-8.3-1.4-13.1c0-1.2,0-2.4,0.1-3.7l0.1-0.9l0-0.1
				c0-0.7,0-0.2,0-0.4l0-0.1l0-0.3l0.2-1.1c0.1-0.9,0.3-2.2,0.5-3.2c0.2-1,0.4-2,0.6-3c0.9-4,2.1-8.1,3.8-12c1.6-3.9,3.7-7.7,6-11
				c4.6-6.8,9.8-12,14.3-16.3c4.5-4.3,8.3-7.9,11.2-11.6c2.9-3.7,4.8-7.7,6-12.4c0.6-2.3,0.9-4.8,1.1-7.2l0-0.5l0-0.2l-0.1-0.1
				c0-0.1-0.1,0.1-0.1,0v-0.1l0.1-1.1c0-0.6,0.1-1.3,0.1-1.9c0-1.2,0-2.4-0.1-3.6c-0.3-4.7-1.3-8.7-3.3-11.9c-1.9-3.2-4.9-5.6-8-7.2
				c-3.1-1.6-6.2-2.6-8.8-3.3c-2.6-0.7-4.7-1-6.2-1.3c-1.4-0.2-2.2-0.4-2.2-0.4s0.8-0.1,2.2-0.3c1.5-0.2,3.6-0.4,6.4-0.5
				c2.8-0.1,6.2-0.1,10.3,0.7c2,0.4,4.2,1,6.4,2c2.2,1,4.5,2.4,6.7,4.3c4.3,3.7,7.5,9.1,9.7,14.8c0.6,1.4,1,2.8,1.5,4.4
				c0.2,0.7,0.4,1.5,0.6,2.2l0.3,1l0,0.1c0,0,0,0.2,0,0.2l0,0.1l0.1,0.3l0.1,0.6c0.8,3.1,1.4,6.4,1.7,9.8c0.3,3.5,0.3,7.2-0.2,10.9
				c-0.4,3.7-1.3,7.6-2.5,11.2c-2.4,7.3-6.1,13.8-9.1,19.3c-3,5.5-5.3,10.3-6.3,14.4c-1,4.1-1,7.5-0.4,11.1c0.1,0.4,0.1,0.9,0.2,1.3
				c0.1,0.5,0.2,0.5,0.3,1.1l0.2,1.1l0,0.3l0,0.1c0-0.1,0,0.4,0-0.3l0,0l0.1,0.1l0.4,0.5c0.7,1,1.4,2,2,2.9c1.7,2.4,4.1,5.7,6.8,9.4
				c2.7,3.7,5.6,8,8.2,13.2c1.3,2.6,2.5,5.4,3.5,8.3c1,3,1.7,6.1,2.1,9.2c0.4,3.1,0.5,6.2,0.4,8.9c-0.1,2.7-0.5,5.1-0.9,7
				c-0.1,0.5-0.2,0.9-0.3,1.3c-0.1,0.5-0.3,1-0.4,1.5c-0.1,0.5-0.3,0.9-0.4,1.3l0,0.1l0,0l0,0.1c0,0.1,0,0.1,0,0.1
				c-0.1,0.4-0.1,0.6-0.1,0.6L364.1,204.1z"/>
		</g>
		<g display="inline">
			<path fill="#29ABE2" d="M454.7,228.2c0,0,0.2-0.7,0.5-2c0.3-1.4,0.8-3.5,1.5-6.2c0.7-2.8,1.5-6.3,2.7-10.4
				c1.2-4.1,2.7-8.8,4.7-13.9c2-5.1,4.6-10.8,8.2-16.7c3.6-5.9,8.4-12.1,14.8-17.6c0.8-0.7,1.7-1.3,2.5-2l0.6-0.5
				c0.3-0.2-0.5,0.4,0.6-0.5l0.1,0l0.1-0.1l0.2-0.1l0.9-0.5l0.5-0.3l0.9-0.6c0.6-0.4,1.2-0.7,1.8-1.1c0.3-0.2,0.6-0.4,0.9-0.5
				l0.8-0.4l1.6-0.8c4.2-1.9,8.4-3.1,12.4-3.9c8-1.4,15-1.2,21.4-0.8c6.4,0.4,12.2,1.2,17.2,1.5c2.5,0.2,4.9,0.2,6.8,0.1
				c0.5,0,1,0,1.4-0.1c0.5,0,0.8-0.1,1.3-0.1c0.2,0,0.4-0.1,0.6-0.1l0.3,0l0.1,0l0,0c0.2-0.1-0.2,0.1-0.1,0.1l0.1,0l0.5-0.2
				c0.2-0.1,0.4-0.1,0.4-0.1c0.2,0,0.3,0,0.5-0.1c3.5-1.2,7-3.8,9.8-7.1c2.9-3.2,5.2-7,6.9-10.7c1.7-3.7,2.9-7.4,3.7-10.8
				c0.7-3.4,1-6.4,1-8.9c0-2.5-0.4-4.5-0.8-5.8c-0.2-0.7-0.4-1.2-0.5-1.5c-0.1-0.3-0.2-0.5-0.2-0.5s0.1,0.1,0.4,0.4
				c0.2,0.3,0.6,0.7,1,1.3c0.8,1.2,1.9,3,2.8,5.6c1.8,5.1,3.2,13,2.2,22.6c-0.5,4.8-1.6,10.1-3.8,15.6c-2.2,5.5-5.6,11.3-11.3,16.3
				c-0.3,0.3-0.8,0.7-1.2,1c-0.2,0.2-0.4,0.3-0.5,0.4l-0.4,0.3l-1.4,0.9c-0.4,0.3-0.9,0.6-1.3,0.8c-0.9,0.5-1.8,1-2.7,1.4
				c-0.9,0.4-1.8,0.8-2.6,1.2c-3.5,1.4-6.9,2.4-10.1,3.2c-6.4,1.6-12.4,2.6-17.8,3.9c-5.3,1.3-10,2.8-13.2,4.7
				c-1.6,0.9-2.7,1.9-3.4,2.9l-0.3,0.3l-0.1,0.2c0,0,0,0.1,0,0.1c0,0,0.1,0.1,0.1,0.1c0,0,0,0,0,0l-0.4,0.4l-0.7,0.8l-0.2,0.2
				l-0.1,0.1l0,0c1.1-0.9,0.3-0.2,0.5-0.4l-0.1,0.2c-0.2,0.3-0.4,0.5-0.5,0.9c-1.3,2.4-2.4,5.3-3.2,8.5c-0.8,3.2-1.3,6.6-1.6,10
				c-0.3,3.3-0.4,6.6-0.5,9.6c0,3,0,5.7,0.1,8c0.1,2.5,0.1,4.4,0.2,5.7c0,1.4,0,2.2,0,2.2L454.7,228.2z"/>
		</g>
		<g display="inline">
			<path fill="#29ABE2" d="M528.6,281.9c0,0,0.5-0.5,1.4-1.5c0.1-0.1,0.1-0.1,0.2-0.2c0.1-0.1,0.2-0.3,0.3-0.4
				c0.2-0.3,0.5-0.6,0.8-0.9c0.5-0.6,1.1-1.3,1.7-2c1.2-1.2,2.5-2.6,4.2-4.1c1.7-1.5,3.7-3.2,6.1-4.9c2.4-1.7,5.2-3.3,8.2-4.8
				c3-1.4,6.2-2.5,9-3.3c2.9-0.8,5.4-1.2,7.5-1.4c4.1-0.5,6.2-0.4,8.5-0.7c1.2-0.2,2.4-0.5,3.8-1c0.7-0.3,1.4-0.6,2.2-1
				c0.4-0.2,0.8-0.4,1.1-0.7l0.1-0.1c-0.1,0.1,0.3-0.3-0.2,0.2l0,0l0.1-0.1l0.4-0.3l0.4-0.3c0.1-0.1,0.1-0.1,0.1-0.1l0.1,0
				c0.1,0,0.1,0,0.2-0.1l0.4-0.2c0.2-0.2,0.5-0.3,0.7-0.5c0.5-0.4,1-0.8,1.5-1.3c0.9-1,1.8-2.1,2.7-3.7c1.6-3,2.8-7.3,3.6-12.2
				c0.8-5,1.2-10.6,2-16.9c0.4-3.1,1-6.5,2.1-10c0.6-1.8,1.3-3.6,2.2-5.4c0.5-0.9,1-1.8,1.6-2.7c0.1-0.2,0.3-0.4,0.5-0.6l0.2-0.3
				l0.1-0.2l0.1-0.1c0.3-0.4,0.1-0.1,0.2-0.2l0.7-0.8c0.4-0.4,0.7-0.9,1.1-1.2c0.3-0.3,0.7-0.7,1-1c0.7-0.6,1.4-1.2,2.1-1.8
				c1.4-1.1,2.9-2,4.4-2.8c3-1.5,5.9-2.4,8.7-3c5.6-1.1,10.6-1,15.1-0.7c4.5,0.4,8.4,1.1,11.8,1.9c3.4,0.8,6.3,1.6,8.7,2.4
				c2.4,0.8,4.2,1.4,5.4,1.9c1.2,0.5,1.9,0.7,1.9,0.7s-0.7,0-2-0.1c-1.3-0.1-3.2-0.1-5.7-0.1c-2.4,0-5.4,0.1-8.7,0.4
				c-3.3,0.3-7,0.8-10.9,1.7c-3.8,0.9-7.9,2.2-11.3,4.2c-1.7,1-3.3,2.2-4.5,3.4c-0.6,0.6-1.1,1.3-1.5,2c-0.2,0.3-0.4,0.7-0.5,1
				c-0.1,0.2-0.1,0.3-0.2,0.5c-0.1,0.2,0,0.2-0.1,0.4c0,0,0,0.1-0.1,0.2l-0.1,0.2l-0.2,0.5c0-0.1-0.1,0.2,0.1-0.1l0,0l0,0.1l0,0.1
				c0,0.1,0,0.1,0,0.2c0,0.3-0.1,0.6-0.1,0.9c0,0.6,0,1.4,0.1,2.3c0.1,1.7,0.4,3.8,0.9,6.2c0.9,4.7,2.3,10.1,3.4,16.3
				c1.1,6.1,1.8,13.1,0.9,20.7c-0.4,3.8-1.3,7.8-2.7,11.7c-0.7,1.9-1.5,3.9-2.4,5.7c-0.5,0.9-1,1.8-1.5,2.7l-0.8,1.3
				c-0.3,0.5-0.6,1-1,1.5l-0.3,0.4c-0.1,0.1-0.2,0.3-0.2,0.3l-0.3,0.4l-0.3,0.4l-0.1,0.1l0,0.1c-0.5,0.5-0.2,0.2-0.3,0.3l-0.2,0.3
				c-0.5,0.7-1,1.5-1.5,2.2c-1,1.4-2.1,2.9-3.3,4.3c-2.3,2.8-5,5.5-7.9,7.9c-2.9,2.4-5.9,4.5-8.8,6.2c-2.8,1.7-5.4,3.1-7.3,4.2
				c-1.9,1.1-3.1,2-3.8,2.7c-0.6,0.7-0.7,1.2-0.6,1.5c0.1,0.3,0.4,0.6,0.5,0.8c0.2,0.3,0.3,0.5,0.4,0.8c0.1,0.3,0.1,0.6,0.1,0.9
				c0.1,0.1,0.2,0.1,0.2,0.2l0.1,0l0,0c0,0.1-0.1,0.2-0.1,0.2c-0.5,1.2-0.7,1.9-0.7,1.9L528.6,281.9z"/>
		</g>
		<g display="inline">
			<path fill="#29ABE2" d="M560.2,355.2c0,0,0.2-0.1,0.5-0.3c0.2-0.1,0.4-0.2,0.6-0.4c0.1-0.1,0.3-0.1,0.4-0.2
				c0.2-0.1,0.4-0.2,0.6-0.4c0.4-0.3,0.9-0.6,1.5-0.9c0.5-0.3,1-0.6,1.6-0.9c1.2-0.7,2.5-1.4,4-2.2c6-3.2,14.4-7.1,25-10.8
				c5.3-1.8,11.1-3.5,17.4-4.9c6.3-1.4,13.1-2.5,20.4-2.8c3.7-0.2,7.4-0.1,11.3,0.2l0.4,0l0.2,0l0.1,0c0.2,0-0.3,0,0.5,0l0.6,0
				l1.2,0.1c1,0.1,2,0.2,3.1,0.2l0.8,0.1l0.8,0.1l1.5,0.2c1,0.1,2,0.4,2.9,0.5c7.7,1.6,14.7,4.6,20.8,7.9c6.1,3.3,11.6,6.8,16.6,9.7
				c2.5,1.4,4.9,2.7,7.1,3.6c1.1,0.5,2.2,0.8,3.2,1c1.1,0.2,1.7,0.4,3.5,0.3c1.2,0,2.5-0.1,3.7-0.3c1.3-0.2,2.5-0.4,3.7-0.7
				c2.4-0.6,4.7-1.4,6.8-2.5c4.2-2.2,7.7-5.3,10.4-8.8c2.7-3.5,4.6-7.3,6.1-10.7c1.4-3.5,2.3-6.7,3-9.4c0.6-2.7,1-4.8,1.3-6.3
				c0.1-0.7,0.2-1.3,0.3-1.7c0.1-0.4,0.2-0.6,0.2-0.6s-0.1,0.2,0,0.6c0,0.4,0,1,0,1.7c0,1.5,0.1,3.7,0,6.5
				c-0.1,2.8-0.4,6.2-1.2,10.2c-0.8,3.9-2,8.4-4.3,12.9c-2.3,4.6-5.7,9.3-10.6,13.2c-2.4,1.9-5.2,3.6-8.1,5c-1.5,0.7-3,1.3-4.6,1.8
				c-1.6,0.6-3.2,1-4.9,1.4c-1.2,0.3-3.6,0.8-5.5,0.9c-2,0.1-4,0.1-5.8-0.2c-3.7-0.4-7.2-1.2-10.5-2.1c-6.5-1.8-12.5-3.8-18.2-5.1
				c-5.7-1.4-10.9-2-15.6-1.6c-0.6,0.1-1.2,0.1-1.7,0.2l-0.8,0.1c-0.1,0-0.3,0-0.4,0.1l-0.3,0.1l-0.6,0.1l-0.9,0.2l-1.1,0.2
				l-0.6,0.1c0.7,0,0.2,0,0.3,0l-0.1,0l-0.1,0l-0.2,0.1c-2.2,0.8-4.4,1.8-6.6,2.9c-4.3,2.2-8.3,4.9-12.1,7.7
				c-3.7,2.8-7.1,5.7-10.1,8.5c-6,5.7-10.5,10.9-13.3,14.5c-0.7,0.9-1.3,1.7-1.8,2.4c-0.2,0.3-0.5,0.7-0.7,1
				c-0.1,0.3-0.3,0.5-0.4,0.7c-0.1,0.1-0.1,0.2-0.2,0.3c-0.1,0.1-0.2,0.3-0.3,0.4c-0.2,0.2-0.3,0.4-0.4,0.6
				c-0.2,0.3-0.4,0.5-0.4,0.5L560.2,355.2z"/>
		</g>
	</g>
	<g id="Head_7" display="none">
		<circle display="inline" fill="#FF7BAC" cx="542.3" cy="261.6" r="72"/>
		<circle display="inline" fill="#FF7BAC" cx="200.3" cy="327.6" r="35"/>
		<circle display="inline" fill="#FF7BAC" cx="350" cy="198" r="50"/>
		<path display="inline" fill="#29ABE2" d="M400,200c-110.5,0-200,89.5-200,200h400C600,289.5,510.5,200,400,200z"/>
		<path display="inline" fill="#29ABE2" d="M241.4,307.9l-26,63.9c-2.5,6.1-9.5,9.1-15.6,6.6l-6.5-2.6c-6.1-2.5-9.1-9.5-6.6-15.6
			l26-63.9c2.5-6.1,9.5-9.1,15.6-6.6l6.5,2.6C240.9,294.7,243.8,301.8,241.4,307.9z"/>
		<path display="inline" fill="#29ABE2" d="M405.7,213.7l-96.9,23.6c-6.4,1.6-12.9-2.4-14.5-8.8l-1.7-6.8
			c-1.6-6.4,2.4-12.9,8.8-14.5l96.9-23.6c6.4-1.6,12.9,2.4,14.5,8.8l1.7,6.8C416.1,205.6,412.1,212.1,405.7,213.7z"/>
		<path display="inline" fill="#29ABE2" d="M577.5,336.4L468.3,225.3c-4.6-4.7-4.6-12.3,0.1-17l5-4.9c4.7-4.6,12.3-4.6,17,0.1
			l109.2,111.1c4.6,4.7,4.6,12.3-0.1,17l-5,4.9C589.8,341.2,582.1,341.1,577.5,336.4z"/>
	</g>
	<g id="Head_8" display="none">
		<path display="inline" fill="#FF7BAC" d="M505,226.5c-34.7-26.6-53.4-95-55.5-113c-4.3,3.4-0.3,7.8-5.4,9.8
			c-7.6-0.8-11.9-9.7-13.1-14.7c-3.1,4.9-2.3,8.5-2.8,14.1c-5.8-8.1-15.2-11.4-24.7-14.1c6.8,13.1,12.9,26.9,15.5,41.4
			c3.6,19.7,0.7,40.6-8.2,58.6c-5.4,11-12.9,20.9-17.2,32.3c-4.5,12-5.2,25.1-5.8,37.9l-2.5-3c-4.9-9.4-8.1-19.5-9.6-30
			c-1.5-10.3-1.3-20.7-1-31.1c0.3-12,0.5-24.2,3.9-35.7c3.9-13.3,12.6-26.7,8.8-40c-2.5,7.3-7.6,13.6-12.2,19.7
			c2.8-4.8,1-10.9-1.8-15.6c-2.8-4.7-8.3-6.8-9.8-12.1c-5,41.6-32.6,66.3-65.1,90.3c-25.3,18.7-52.5,37.8-66.7,65.8L231,287v100v1
			h339l0.4-90.6C555.5,266,529.9,245.6,505,226.5z"/>
		<path display="inline" fill="#29ABE2" d="M674,292.5c-42-20.6-164.5,0-189,86C462.5,296,400,276,400,276s-52.5,15-84.5,90
			c-15.2-62.6-105.3-125-203.1-91.9c23.4-0.9,91.1,58.8,87.6,125.9h400C601.4,390.5,613.5,298.9,674,292.5z"/>
		<path display="inline" fill="#FF7BAC" d="M380.5,173.6c9-4.7,18.2-9.7,24.4-17.7c6.2-8,10.2-16.2,8.2-26.2c0,0,3.2,5.9,5.9,20.4
			c3.6,19.7,0.7,40.6-8.2,58.6c-5.4,11-12.9,20.9-17.2,32.3c-4.5,12-5.2,25.1-5.8,37.9l-2.5-3c-4.9-9.4-8.1-19.5-9.6-30
			c-1.5-10.3-1.3-20.7-1-31.1c0.3-12,0.5-24.2,3.9-35.7"/>
		<path display="inline" opacity="0.2" d="M380.5,173.6c9-4.7,18.2-9.7,24.4-17.7c6.2-8,10.2-16.2,8.2-26.2c0,0,3.2,5.9,5.9,20.4
			c3.6,19.7,0.7,40.6-8.2,58.6c-5.4,11-12.9,20.9-17.2,32.3c-4.5,12-5.2,25.1-5.8,37.9l-2.5-3c-4.9-9.4-8.1-19.5-9.6-30
			c-1.5-10.3-1.3-20.7-1-31.1c0.3-12,0.5-24.2,3.9-35.7"/>
		<g display="inline" opacity="0.2">
			<g>
				<path d="M435.3,160c4.9,21.9-0.8,44.8-9.4,65.1c-6.8,15.7-13.7,34.4-7.3,51.4c0.9,2.4,4.8,1.4,3.9-1.1
					c-6.7-17.7,1.9-36.1,8.5-52.3c8.2-20.1,13-42.6,8.2-64.2C438.6,156.5,434.7,157.5,435.3,160L435.3,160z"/>
			</g>
		</g>
		<g display="inline" opacity="0.2">
			<g>
				<path d="M446,166c-0.8,11.1,0.3,22.5,1.8,33.4c1.9,14.3,5.1,29.3,13,41.6c3.6,5.6,8.7,9,13.5,13.4c5.8,5.4,10.4,12.1,13.8,19.3
					c9.7,20,7.9,43.2,1,63.7c-0.8,2.5,3,3.5,3.9,1.1c6.5-19.2,8.2-39.8,1.7-59.3c-2.4-7.2-6.2-14.2-10.9-20.2
					c-4.6-5.9-10.5-9.9-15.7-15.1c-10.6-10.7-13.9-28.5-16-42.8c-1.8-11.5-2.9-23.6-2-35.2C450.2,163.4,446.2,163.4,446,166L446,166
					z"/>
			</g>
		</g>
		<g display="inline" opacity="0.2">
			<g>
				<path d="M364.6,172.5c-5.9,29-28,48.4-47.7,68.7c-8.8,9.1-17.2,18.8-22.9,30.2c-6,12-7.6,25.3-5.7,38.5c0.4,2.5,4.2,1.5,3.9-1.1
					c-1.9-13.7,0.5-27,7.2-39.1c6.4-11.5,15.8-21.1,25-30.4c18.9-19.1,38.5-38.4,44.1-65.7C368.9,171,365.1,169.9,364.6,172.5
					L364.6,172.5z"/>
			</g>
		</g>
		<g display="inline" opacity="0.2">
			<g>
				<path d="M493,241.7c22.6,15,39.6,36,46,62.7c0.6,2.5,4.5,1.4,3.9-1.1c-6.7-27.7-24.4-49.6-47.8-65.1
					C492.9,236.8,490.9,240.3,493,241.7L493,241.7z"/>
			</g>
		</g>
		<g display="inline" opacity="0.2">
			<g>
				<path d="M348.2,294.7c-8.4-13.8-6.4-29-0.2-43.3c2.3-5.3,5.2-10.4,7.9-15.6c1.5-2.9,3.4-6.1,3.6-9.5c0.1-2.6-3.9-2.6-4,0
					c-0.2,3.7-3.2,7.7-4.9,10.9c-3,5.6-5.9,11.3-8.2,17.3c-5.4,14-5.6,29.1,2.3,42.2C346.1,298.9,349.5,296.9,348.2,294.7
					L348.2,294.7z"/>
			</g>
		</g>
	</g>
	<g id="Head_9" display="none">
		<path display="inline" fill="#29ABE2" d="M400,200c-110.5,0-200,89.5-200,200h400C600,289.5,510.5,200,400,200z"/>
		<path display="inline" fill="none" stroke="#29ABE2" stroke-width="30" stroke-miterlimit="10" d="M503.3,267.6
			c0.6-19.6,61.7-118.1,98.5-114.5"/>
		<path display="inline" fill="none" stroke="#29ABE2" stroke-width="30" stroke-miterlimit="10" d="M294.4,264.6
			C282,244.1,262,162.1,211.1,156"/>
		<circle display="inline" fill="#29ABE2" cx="182.5" cy="153" r="40"/>
		<circle display="inline" fill="#FF7BAC" cx="182.5" cy="153" r="25"/>
		<circle display="inline" fill="#29ABE2" cx="617.5" cy="146" r="40"/>
		<circle display="inline" fill="#FF7BAC" cx="617.5" cy="146" r="25"/>
	</g>
	<g id="Head_10" display="none">
		<path display="inline" fill="#29ABE2" d="M400,200c-110.5,0-200,89.5-200,200h400C600,289.5,510.5,200,400,200z"/>
		<g display="inline">
			<path fill="#FF7BAC" d="M207,308c-38-26.5-57.8-88.8-23.2-132.5C219,131,247,117,226.5,53.3c61,52.7,14.5,114.2,18,149.7
				c1.2,12.5,15,27.6,27.5,26.5L207,308z"/>
			<path opacity="0.2" d="M227.2,55.7c0,0.1,0.1,0.2,0.1,0.3c0.1,0.3,0.2,0.6,0.3,0.9c0.1,0.4,0.2,0.8,0.4,1.2
				c0,0.1,0.1,0.2,0.1,0.3c0.4,1.4,0.8,2.7,1.1,4c0,0.1,0.1,0.2,0.1,0.3c0,0.2,0.1,0.3,0.1,0.5c0.3,1.2,0.6,2.4,0.9,3.6
				c0,0.1,0.1,0.3,0.1,0.4c0.3,1.3,0.6,2.6,0.9,3.9c0,0.1,0.1,0.3,0.1,0.4c0,0.1,0,0.2,0.1,0.3c0.2,1.1,0.4,2.3,0.6,3.4
				c0,0.2,0.1,0.4,0.1,0.6c0.2,1,0.3,2.1,0.5,3.1c0,0.2,0.1,0.4,0.1,0.6c0.1,1.1,0.3,2.3,0.4,3.4c0,0.2,0,0.5,0.1,0.7
				c0.1,1.2,0.2,2.3,0.2,3.4c0,0.1,0,0.1,0,0.2c0,0.1,0,0.2,0,0.4c0,0.9,0.1,1.8,0.1,2.7c0,0.1,0,0.3,0,0.4c0,1,0,2,0,3
				c0,0.2,0,0.4,0,0.5c0,1-0.1,2-0.2,3c0,0.1,0,0.2,0,0.3c-0.1,1-0.2,2-0.3,3c0,0.1,0,0.1,0,0.2c0,0,0,0.1,0,0.1
				c-0.1,0.9-0.3,1.8-0.4,2.7c0,0.2-0.1,0.3-0.1,0.5c-0.2,0.9-0.4,1.8-0.6,2.7c0,0.1,0,0.1,0,0.2c-0.2,0.9-0.5,1.8-0.7,2.7
				c0,0.1,0,0.2-0.1,0.2c-0.3,0.9-0.5,1.7-0.8,2.6c0,0.1-0.1,0.2-0.1,0.3c0,0.1-0.1,0.2-0.1,0.2c-0.3,0.8-0.6,1.6-0.9,2.5
				c0,0.1-0.1,0.2-0.1,0.3c-0.3,0.8-0.7,1.6-1,2.4c0,0.1,0,0.1-0.1,0.2c-0.4,0.8-0.8,1.6-1.2,2.4c-0.1,0.1-0.1,0.3-0.2,0.4
				c-0.4,0.8-0.8,1.6-1.2,2.3c0,0,0,0.1,0,0.1c0,0.1-0.1,0.1-0.1,0.2c-0.4,0.7-0.8,1.4-1.3,2.2c0,0.1-0.1,0.1-0.1,0.2c0,0,0,0,0,0
				c-0.2,0.3-0.4,0.7-0.6,1c0,0.1,0,0.2,0,0.2c0,0.3,2.6,8.9,2.8,9.4c4-3.9,7-6.1,11.1-10.1c1,3.9,2.1,7.5,3.8,12.1
				c3.2-3,4.7-4.1,8.8-8c2.8,5.3,3.7,7.5,6.3,12.5c5.4-28.7,4.7-60.7-29.2-89.9c0.2,0.2,0.3,0.8,0.3,1.1
				C227,54.8,227.1,55.3,227.2,55.7z"/>
			<path fill="#29ABE2" d="M307,258l-68.9,83.1c-4.2,5.1-11.8,5.8-16.9,1.6l-16.9-14c-5.1-4.2-5.8-11.8-1.6-16.9l68.9-83.1
				c4.2-5.1,11.8-5.8,16.9-1.6l16.9,14C310.6,245.3,311.3,252.9,307,258z"/>
		</g>
		<g display="inline">
			<path fill="#FF7BAC" d="M592.8,308c38-26.5,57.8-88.8,23.2-132.5C580.8,131,552.8,117,573.4,53.3c-61,52.7-14.5,114.2-18,149.7
				c-1.2,12.5-15,27.6-27.5,26.5L592.8,308z"/>
			<path opacity="0.2" d="M572.6,55.7c0,0.1-0.1,0.2-0.1,0.3c-0.1,0.3-0.2,0.6-0.3,0.9c-0.1,0.4-0.2,0.8-0.4,1.2
				c0,0.1-0.1,0.2-0.1,0.3c-0.4,1.4-0.8,2.7-1.1,4c0,0.1-0.1,0.2-0.1,0.3c0,0.2-0.1,0.3-0.1,0.5c-0.3,1.2-0.6,2.4-0.9,3.6
				c0,0.1-0.1,0.3-0.1,0.4c-0.3,1.3-0.6,2.6-0.9,3.9c0,0.1-0.1,0.3-0.1,0.4c0,0.1,0,0.2-0.1,0.3c-0.2,1.1-0.4,2.3-0.6,3.4
				c0,0.2-0.1,0.4-0.1,0.6c-0.2,1-0.3,2.1-0.5,3.1c0,0.2-0.1,0.4-0.1,0.6c-0.1,1.1-0.3,2.3-0.4,3.4c0,0.2,0,0.5-0.1,0.7
				c-0.1,1.2-0.2,2.3-0.2,3.4c0,0.1,0,0.1,0,0.2c0,0.1,0,0.2,0,0.4c0,0.9-0.1,1.8-0.1,2.7c0,0.1,0,0.3,0,0.4c0,1,0,2,0,3
				c0,0.2,0,0.4,0,0.5c0,1,0.1,2,0.2,3c0,0.1,0,0.2,0,0.3c0.1,1,0.2,2,0.3,3c0,0.1,0,0.1,0,0.2c0,0,0,0.1,0,0.1
				c0.1,0.9,0.3,1.8,0.4,2.7c0,0.2,0.1,0.3,0.1,0.5c0.2,0.9,0.4,1.8,0.6,2.7c0,0.1,0,0.1,0,0.2c0.2,0.9,0.5,1.8,0.7,2.7
				c0,0.1,0,0.2,0.1,0.2c0.3,0.9,0.5,1.7,0.8,2.6c0,0.1,0.1,0.2,0.1,0.3c0,0.1,0.1,0.2,0.1,0.2c0.3,0.8,0.6,1.6,0.9,2.5
				c0,0.1,0.1,0.2,0.1,0.3c0.3,0.8,0.7,1.6,1,2.4c0,0.1,0,0.1,0.1,0.2c0.4,0.8,0.8,1.6,1.2,2.4c0.1,0.1,0.1,0.3,0.2,0.4
				c0.4,0.8,0.8,1.6,1.2,2.3c0,0,0,0.1,0,0.1c0,0.1,0.1,0.1,0.1,0.2c0.4,0.7,0.8,1.4,1.3,2.2c0,0.1,0.1,0.1,0.1,0.2c0,0,0,0,0,0
				c0.2,0.3,0.4,0.7,0.6,1c0,0.1,0,0.2,0,0.2c0,0.3-2.6,8.9-2.8,9.4c-4-3.9-7-6.1-11.1-10.1c-1,3.9-2.1,7.5-3.8,12.1
				c-3.2-3-4.7-4.1-8.8-8c-2.8,5.3-3.7,7.5-6.3,12.5c-5.4-28.7-4.7-60.7,29.2-89.9c-0.2,0.2-0.3,0.8-0.3,1.1
				C572.9,54.8,572.8,55.3,572.6,55.7z"/>
			<path fill="#29ABE2" d="M492.8,258l68.9,83.1c4.2,5.1,11.8,5.8,16.9,1.6l16.9-14c5.1-4.2,5.8-11.8,1.6-16.9l-68.9-83.1
				c-4.2-5.1-11.8-5.8-16.9-1.6l-16.9,14C489.3,245.3,488.6,252.9,492.8,258z"/>
		</g>
	</g>
	<g id="Head_11" display="none">
		<path display="inline" fill="#FF7BAC" d="M310.4,223.6c-8.2-3-16.5-5.9-24.7-8.9c-2.5-0.9-5.1-1.8-7.1-3.6c-2.3-2-3.6-4.8-4.8-7.6
			c-4-9.6-6.5-19.7-7.6-30.1c-1.5-14.4-0.2-28.9,2-43.2c1.3-8.8,2.9-17.7,7-25.6c5.3-10.3,14.6-18.5,25.6-22.4
			c10.9-3.9,23.4-3.3,34,1.4c5.4,2.4,10.6,6.3,12.5,11.9c1.9,5.8-0.1,12.2-2.1,18c-2.1,6.1-4.3,12.2-8.1,17.4
			c-3.8,5.2-9.6,9.2-16.1,9.4c-8.2,0.2-15.7-5.8-23.8-4.9c0.7,1.4,1.4,2.8,2.2,4.2c3.1,6.1,7.3,13,14.1,13.6c4.3,0.4,8.3-1.9,12-4.1
			c9.9-5.9,19.9-11.8,29.8-17.7c5.7-3.4,12.3-8.4,11.3-15c-0.4-2.7-2-5-3.5-7.3c-6.1-9.4-9.9-20.2-11-31.3c2.3-0.2,4.5-1,6.5-2.2
			c-3.9-3.7-8.4-6.7-13.4-8.7c-8.2-3.3-17.1-4-25.9-4.7c-7.5-0.6-15.1-1.1-22.6-1.7c-7.8-0.6-15.6-1.1-23.3,0.2
			c-7.7,1.3-15.3,4.7-20.1,10.8c-9.1,11.4-6.1,27.8-8.4,42.2c-2.6,16.4-12.7,32.1-9.6,48.4c1.1,5.8,3.9,11.2,5.8,16.8
			c3.9,11.4,4.2,23.6,4.4,35.7c0.3,21.1,0.4,42.2,0.2,63.3"/>
		<path display="inline" fill="#FF7BAC" d="M494.9,224c10.5,1.6,21.2-1,30.8-5.4c9.6-4.4,18.2-10.7,26.8-16.9
			c1.9-1.4,3.9-2.9,4.7-5.1c0.7-1.8,0.4-3.9,0-5.8c-2-11.2-5.9-22-7-33.4c-0.5-5.6-0.3-11.2-1.4-16.7c-2-10.1-8.2-19.1-16.3-25.5
			c-8-6.4-17.8-10.5-27.7-13c-10.1-2.6-22-3.2-29.5,3.9c-2.9,2.8-4.8,6.4-5.9,10.3c-2.9,10.4,0.9,22.9,10.1,28.5
			c9.9,6,22.6,3.3,34.1,4.5c-6.2,5.5-13.3,10-21,13.2c-3.4,1.4-7.2,2.5-10.6,1.2c-2.6-1-4.5-3.2-6.3-5.3c-4.6-5.5-9.2-11-13.8-16.5
			c-0.5-0.6-1-1.2-1.7-1.4c-2.4-0.9-6,2.2-7.3-0.1c0-2.3-3.4-7.2-5.1-7.3c0.2-13.6,1-28.6,10.3-38.5c5-5.3,11.8-8.4,18.6-10.9
			c2.8-1,5.6-2,8.5-2c4.6,0,8.8,2.4,13.1,4.1c7.6,3,15.8,3.7,23.6,6.2c8.3,2.7,15.9,7.3,23.4,11.8c4.4,2.7,8.8,5.4,12,9.4
			c3.7,4.7,5.4,10.6,7.5,16.2c2.9,7.8,6.9,15.1,11.8,21.8c1.2,1.7,2.5,3.3,3.1,5.2c0.6,1.8,0.7,3.7,0.7,5.6
			c0.2,9.1,0.4,18.2,0.6,27.3c0.1,4.9,0.1,10.1-2.3,14.3c-2.5,4.5-7.4,7.3-11.2,10.7c-4.4,3.9-7.8,9-11,13.9
			c-6.1,9.3-12.3,18.6-18.4,27.9"/>
		<path display="inline" fill="#29ABE2" d="M224.5,304.1C219,311.5,200,349.5,200,400c0,0,400,0,400,0c0-50-17.8-83-24.7-91.5
			c14.9,0.8,28.9,10.9,43.3,14.3c18.5,4.4,38.9,0.6,54.5-10.4c3.6-2.5,7-5.4,9.5-9.1c3.5-5,5.4-11.4,10.7-14.4
			c6.4-3.6,14.4-0.2,21.7-1.2c-11.5-16.4-32.8-22.1-52.5-25.8c-5.1-1-10.3-1.8-15.5-2.2c-8.5-0.6-17,0.4-25.5,1.7
			c-13.3,2.2-26.5,5.4-39.3,9.7c-5.9,2-12.2,5.7-18.2,6.9c-6,1.2-7.2-2.5-11-6.9c-15.3-18.2-33.9-33.6-54.5-45.4
			c-12.4-7-25.5-12.7-39-16.9c-14.8-4.6-30.7-6.5-43.3-16.2c-10.4-9.1-15.4-23.6-6.2-32.9c-4.2,0-13.7,1.6-17.6,14.5
			c-10,28.2-37.3,29-61.4,37.8c-22.8,8.4-44,21-62.4,36.9c-14.1,12.3-28,37.6-50.3,32c-4.7-1.2-29.8-24.5-59.8-24.6
			c-77.9-0.3-94.7,31-92.6,38.5c7-4.2,8.8-4.9,17.1-6.8c9.4-2.2,19.9,2.9,26.3,10.8s11,17.5,19.1,23.6c11.5,8.5,27.2,7.8,41.5,6.8
			c4.6-0.3,9.2-0.9,13.4-2.5C208,317.7,211,305.7,224.5,304.1"/>
	</g>
	<g id="Head_12">
		<path fill="#29ABE2" d="M400,200c-110.5,0-200,89.5-200,200h400C600,289.5,510.5,200,400,200z"/>
		<path fill="#FF7BAC" d="M195,330.3c-13-5.1-84-5.8-121.3,1.1c-18.1,3.4-30.2,45.3-29,65.5C29,373.6,23,276.1,56.2,269.2
			c6.2-3.2,88.8-2.1,138.8-3.2V330.3z"/>
		<path fill="#FF7BAC" d="M605,330.3c13-5.1,84-5.8,121.4,1.1c18.1,3.4,30.2,45.3,29,65.5c15.7-23.3,21.7-120.8-11.5-127.7
			c-6.2-3.2-88.9-2.1-138.9-3.2V330.3z"/>
		<path fill="#29ABE2" d="M593,340.8H207c-6.6,0-12-5.4-12-12V267c0-6.6,5.4-12,12-12h386c6.6,0,12,5.4,12,12v61.8
			C605,335.4,599.6,340.8,593,340.8z"/>
	</g>
</g>
<g id="Mouths">
	<g id="Mouth_0" display="none">
		
			<line display="inline" opacity="0.4" fill="none" stroke="#000000" stroke-width="10" stroke-miterlimit="10" x1="360" y1="700" x2="440" y2="700"/>
	</g>
	<g id="Mouth_1" display="none">
		
			<line display="inline" opacity="0.4" fill="none" stroke="#000000" stroke-width="10" stroke-miterlimit="10" x1="360" y1="700" x2="440" y2="700"/>
		<path display="inline" fill="#FFFFFF" d="M394,735h-24c-2.2,0-4-1.8-4-4v-26h32v26C398,733.2,396.2,735,394,735z"/>
		<path display="inline" fill="#FFFFFF" d="M430,745h-24c-2.2,0-4-1.8-4-4v-36h32v36C434,743.2,432.2,745,430,745z"/>
	</g>
	<g id="Mouth_2" display="none">
		
			<line display="inline" opacity="0.4" fill="none" stroke="#000000" stroke-width="10" stroke-miterlimit="10" x1="360" y1="700" x2="440" y2="700"/>
		<path display="inline" fill="#C1272D" d="M384,705c1.8,17.6-22.9,54,16.4,54c38.7,0,13.1-37.2,15.4-54H384z"/>
	</g>
	<g id="Mouth_3" display="none">
		<path display="inline" opacity="0.4" fill="none" stroke="#000000" stroke-width="10" stroke-miterlimit="10" d="M480,695
			c-15.8,8.7-35.8,18-80,18s-64.2-9.3-80-18"/>
	</g>
	<g id="Mouth_4" display="none">
		<path display="inline" fill="#C1272D" d="M338.7,709.2L338,709c-9,12.9-11.1,17.3-9.6,29.5c0.9,7.4,13.5,14.6,21.9,11.9
			c15.5-4.9,0.5-16.5,9.7-35.6C351.7,713.4,344.7,711.4,338.7,709.2z"/>
		<path display="inline" opacity="0.4" fill="none" stroke="#000000" stroke-width="10" stroke-miterlimit="10" d="M480,695
			c-15.8,8.7-35.8,18-80,18s-64.2-9.3-80-18"/>
	</g>
	<g id="Mouth_5" display="none">
		<path display="inline" fill="#C1272D" d="M461.3,709.2l0.7-0.2c9,12.9,11.1,17.3,9.6,29.5c-0.9,7.4-13.5,14.6-21.9,11.9
			c-15.5-4.9-0.5-16.5-9.7-35.6C448.3,713.4,455.3,711.4,461.3,709.2z"/>
		<path display="inline" opacity="0.4" fill="none" stroke="#000000" stroke-width="10" stroke-miterlimit="10" d="M320,695
			c15.8,8.7,35.8,18,80,18s64.2-9.3,80-18"/>
	</g>
	<g id="Mouth_6" display="none">
		<path display="inline" fill="#FFFFFF" d="M475.7,703c-6.4,3.2-13.8,6.4-23.2,8.9l5.5,14.5c0.8,2,3.1,3.1,5.1,2.3l15.8-5.9
			c2-0.8,3.1-3.1,2.3-5.1L475.7,703z"/>
		<path display="inline" opacity="0.4" fill="none" stroke="#000000" stroke-width="10" stroke-miterlimit="10" d="M480,695
			c-15.8,8.7-35.8,18-80,18s-64.2-9.3-80-18"/>
	</g>
	<g id="Mouth_7" display="none">
		<path display="inline" fill="#FFFFFF" d="M325.8,703c6.4,3.2,13.8,6.4,23.2,8.9l-5.5,14.5c-0.8,2-3.1,3.1-5.1,2.3l-15.8-5.9
			c-2-0.8-3.1-3.1-2.3-5.1L325.8,703z"/>
		<path display="inline" opacity="0.4" fill="none" stroke="#000000" stroke-width="10" stroke-miterlimit="10" d="M320,695
			c15.8,8.7,35.8,18,80,18s64.2-9.3,80-18"/>
	</g>
	<g id="Mouth_8" display="none">
		<path display="inline" fill="#FFFFFF" d="M366,740.9c0,2.2,1.8,4.1,4,4.1h24c2.2,0,4-1.9,4-4.1v-22.7c-12.5-0.1-23-0.9-32-2.2
			V740.9z"/>
		<path display="inline" fill="#FFFFFF" d="M402,718.2v32.5c0,2.2,1.8,4.2,4,4.2h24c2.2,0,4-2.1,4-4.2V716
			C425,717.3,414.5,718.2,402,718.2z"/>
		<path display="inline" opacity="0.4" fill="none" stroke="#000000" stroke-width="10" stroke-miterlimit="10" d="M320,695
			c15.8,8.7,35.8,18,80,18s64.2-9.3,80-18"/>
	</g>
	<g id="Mouth_9" display="none">
		<path display="inline" d="M290.6,693.9c-2.4,10.5,2.4,21.4,8.9,29.8c5.9,7.7,13.3,14.1,21.6,18.8c13.1,7.4,28,10.3,42.8,12.4
			c11.7,1.6,23.5,2.8,35.2,1.6c37.9-3.7,69.7-30.2,97.3-57.3c5.3-5.2,10.8-10.8,12.8-18.1c2.8-10.1-2.1-21.3-9.9-28.1
			c-7.8-6.8-17.9-10.1-27.9-12.2c-51.7-11.1-105.6,3.5-153.4,26.7C306.3,673.2,293.6,680.9,290.6,693.9z"/>
		<path display="inline" fill="#FFFFFF" d="M295.8,683.4L321,696l-1.6-29.2c-0.4,0.2-0.9,0.4-1.3,0.6
			C309.9,671.4,301.3,676.4,295.8,683.4z"/>
		<path display="inline" fill="#FFFFFF" d="M349.9,653.7c-9.3,3.4-18.4,7.3-27.3,11.5l23.6,17.7L349.9,653.7z"/>
		<path display="inline" fill="#FFFFFF" d="M382.9,643.6c-9.9,2.4-19.6,5.4-29.2,8.8l22.1,20.6L382.9,643.6z"/>
		<path display="inline" fill="#FFFFFF" d="M404.2,665l10.9-27c-9.9,1-19.7,2.7-29.5,4.9L404.2,665z"/>
		<path display="inline" fill="#FFFFFF" d="M418.9,637.7L433,663l14.2-25.6C437.8,636.8,428.3,636.9,418.9,637.7z"/>
		<path display="inline" fill="#FFFFFF" d="M460.9,665l19.2-22c-2.9-0.9-5.8-1.6-8.6-2.2c-6.6-1.4-13.2-2.4-19.8-3L460.9,665z"/>
		<path display="inline" fill="#FFFFFF" d="M484.1,673l21.5-12.5c-1.7-2.8-3.9-5.3-6.3-7.5c-4.5-3.9-9.7-6.7-15.3-8.7L484.1,673z"/>
		<path display="inline" fill="#C1272D" d="M430.8,726.4c-8.9-3.3-18.5-4.2-27.9-4.8c-8-0.5-16.1-0.7-24,1s-15.5,5.3-20.7,11.5
			c-3.4,4.1-5.5,11.5-7.1,18.7c4.2,0.8,8.5,1.5,12.7,2.1c11.7,1.6,23.5,2.8,35.2,1.6c16.7-1.6,32.3-7.7,46.8-16.3
			C441.6,734.2,436.3,728.5,430.8,726.4z"/>
	</g>
	<g id="Mouth_10" display="none">
		<ellipse display="inline" cx="400" cy="700" rx="95" ry="40"/>
		<path display="inline" fill="#FFFFFF" d="M370.2,662c-16.2,2.2-30.4,6.3-41.4,11.5l31.1,28.5L370.2,662z"/>
		<path display="inline" fill="#FFFFFF" d="M472.6,674.2c-11-5.5-25.5-9.7-42-12.1l10.5,40.9L472.6,674.2z"/>
		<path display="inline" fill="#C1272D" d="M400.3,740c13.8,0,26.9-1.2,38.7-3.5c-5-6.8-11-14.8-17.7-18.1c-10.8-5.3-23.4-7-35.1-4
			c-10,2.6-19.2,12.4-25.3,22C373,738.7,386.3,740,400.3,740z"/>
	</g>
	<g id="Mouth_11" display="none">
		<ellipse display="inline" cx="400" cy="700" rx="95" ry="40"/>
		<path display="inline" fill="#C1272D" d="M400.3,740c13.8,0,26.9-1.2,38.7-3.5c-5-6.8-11-14.8-17.7-18.1c-10.8-5.3-23.4-7-35.1-4
			c-10,2.6-19.2,12.4-25.3,22C373,738.7,386.3,740,400.3,740z"/>
		<path display="inline" fill="#FFFFFF" d="M369.5,738c-16-2.2-30.1-6.3-41-11.5l30.8-28.5L369.5,738z"/>
		<path display="inline" fill="#FFFFFF" d="M473,725.9c-11,5.5-25.5,9.7-42,12.1l10.5-41L473,725.9z"/>
	</g>
	<g id="Mouth_12">
		<path opacity="0.4" fill="none" stroke="#000000" stroke-width="10" stroke-miterlimit="10" d="M278,653.6
			c-8.3,9.1-7.9,19.3,0.7,26.8c15,13,22.1-8.1,39.3,2c13.7,8-2.6,22.3,14,28.7c20.7,8,19.6-16,38.3-9c16,6,3.3,25.1,29.7,25.1"/>
		<path opacity="0.4" fill="none" stroke="#000000" stroke-width="10" stroke-miterlimit="10" d="M522,653.6
			c8.3,9.1,7.9,19.3-0.7,26.8c-15,13-22.1-8.1-39.3,2c-13.7,8,2.6,22.3-14,28.7c-20.7,8-19.6-16-38.3-9c-16,6-3.3,25.1-29.7,25.1"/>
		
			<line opacity="0.4" fill="none" stroke="#000000" stroke-width="10" stroke-miterlimit="10" x1="271.8" y1="641" x2="290.8" y2="658.5"/>
		
			<line opacity="0.4" fill="none" stroke="#000000" stroke-width="10" stroke-miterlimit="10" x1="510.4" y1="657.6" x2="527.6" y2="642"/>
	</g>
</g>
<g id="Repres" display="none">
	<circle display="inline" fill="none" stroke="#00FFFF" stroke-miterlimit="10" cx="400" cy="400" r="400"/>
</g>
</svg>
