<?xml version="1.0" encoding="utf-8"?>
<!DOCTYPE svg PUBLIC "-//W3C//DTD SVG 1.1//EN" "http://www.w3.org/Graphics/SVG/1.1/DTD/svg11.dtd">

<svg
    version="1.1"
    xmlns="http://www.w3.org/2000/svg"
    viewBox="0 0 800 800"
>
    <g id="Mouth_10">
        <ellipse cx="400" cy="700" rx="95" ry="40"/>
        <path fill="#FFFFFF" d="M370.2,662c-16.2,2.2-30.4,6.3-41.4,11.5l31.1,28.5L370.2,662z"/>
        <path fill="#FFFFFF" d="M472.6,674.2c-11-5.5-25.5-9.7-42-12.1l10.5,40.9L472.6,674.2z"/>
        <path fill="#C1272D" d="M400.3,740c13.8,0,26.9-1.2,38.7-3.5c-5-6.8-11-14.8-17.7-18.1c-10.8-5.3-23.4-7-35.1-4
            c-10,2.6-19.2,12.4-25.3,22C373,738.7,386.3,740,400.3,740z"/>
    </g>
</svg>
