<?xml version="1.0" encoding="utf-8"?>
<!DOCTYPE svg PUBLIC "-//W3C//DTD SVG 1.1//EN" "http://www.w3.org/Graphics/SVG/1.1/DTD/svg11.dtd">

<svg
    version="1.1"
    xmlns="http://www.w3.org/2000/svg"
    viewBox="0 0 800 800"
>
    <g id="Mouth_12">
        <path opacity="0.4" fill="none" stroke="#000000" stroke-width="10" stroke-miterlimit="10" d="M278,653.6
            c-8.3,9.1-7.9,19.3,0.7,26.8c15,13,22.1-8.1,39.3,2c13.7,8-2.6,22.3,14,28.7c20.7,8,19.6-16,38.3-9c16,6,3.3,25.1,29.7,25.1"/>
        <path opacity="0.4" fill="none" stroke="#000000" stroke-width="10" stroke-miterlimit="10" d="M522,653.6
            c8.3,9.1,7.9,19.3-0.7,26.8c-15,13-22.1-8.1-39.3,2c-13.7,8,2.6,22.3-14,28.7c-20.7,8-19.6-16-38.3-9c-16,6-3.3,25.1-29.7,25.1"/>

        <line opacity="0.4" fill="none" stroke="#000000" stroke-width="10" stroke-miterlimit="10" x1="271.8" y1="641" x2="290.8" y2="658.5"/>

        <line opacity="0.4" fill="none" stroke="#000000" stroke-width="10" stroke-miterlimit="10" x1="510.4" y1="657.6" x2="527.6" y2="642"/>
    </g>
</svg>
