<?xml version="1.0" encoding="utf-8"?>
<!DOCTYPE svg PUBLIC "-//W3C//DTD SVG 1.1//EN" "http://www.w3.org/Graphics/SVG/1.1/DTD/svg11.dtd">

<svg
    version="1.1"
    xmlns="http://www.w3.org/2000/svg"
    viewBox="0 0 800 800"
>
    <g id="Mouth_9">
        <path d="M290.6,693.9c-2.4,10.5,2.4,21.4,8.9,29.8c5.9,7.7,13.3,14.1,21.6,18.8c13.1,7.4,28,10.3,42.8,12.4
            c11.7,1.6,23.5,2.8,35.2,1.6c37.9-3.7,69.7-30.2,97.3-57.3c5.3-5.2,10.8-10.8,12.8-18.1c2.8-10.1-2.1-21.3-9.9-28.1
            c-7.8-6.8-17.9-10.1-27.9-12.2c-51.7-11.1-105.6,3.5-153.4,26.7C306.3,673.2,293.6,680.9,290.6,693.9z"/>
        <path fill="#FFFFFF" d="M295.8,683.4L321,696l-1.6-29.2c-0.4,0.2-0.9,0.4-1.3,0.6
            C309.9,671.4,301.3,676.4,295.8,683.4z"/>
        <path fill="#FFFFFF" d="M349.9,653.7c-9.3,3.4-18.4,7.3-27.3,11.5l23.6,17.7L349.9,653.7z"/>
        <path fill="#FFFFFF" d="M382.9,643.6c-9.9,2.4-19.6,5.4-29.2,8.8l22.1,20.6L382.9,643.6z"/>
        <path fill="#FFFFFF" d="M404.2,665l10.9-27c-9.9,1-19.7,2.7-29.5,4.9L404.2,665z"/>
        <path fill="#FFFFFF" d="M418.9,637.7L433,663l14.2-25.6C437.8,636.8,428.3,636.9,418.9,637.7z"/>
        <path fill="#FFFFFF" d="M460.9,665l19.2-22c-2.9-0.9-5.8-1.6-8.6-2.2c-6.6-1.4-13.2-2.4-19.8-3L460.9,665z"/>
        <path fill="#FFFFFF" d="M484.1,673l21.5-12.5c-1.7-2.8-3.9-5.3-6.3-7.5c-4.5-3.9-9.7-6.7-15.3-8.7L484.1,673z"/>
        <path fill="#C1272D" d="M430.8,726.4c-8.9-3.3-18.5-4.2-27.9-4.8c-8-0.5-16.1-0.7-24,1s-15.5,5.3-20.7,11.5
            c-3.4,4.1-5.5,11.5-7.1,18.7c4.2,0.8,8.5,1.5,12.7,2.1c11.7,1.6,23.5,2.8,35.2,1.6c16.7-1.6,32.3-7.7,46.8-16.3
            C441.6,734.2,436.3,728.5,430.8,726.4z"/>
    </g>
</svg>
